<?xml version="1.0" encoding="UTF-8"?>
<svg width="77px" height="65px" viewBox="0 0 77 65" version="1.1" xmlns="http://www.w3.org/2000/svg" xmlns:xlink="http://www.w3.org/1999/xlink">
    <!-- Generator: Sketch 43.2 (39069) - http://www.bohemiancoding.com/sketch -->
    <title>dashboard</title>
    <desc>Created with Sketch.</desc>
    <defs></defs>
    <g id="Page-1" stroke="none" stroke-width="1" fill="none" fill-rule="evenodd">
        <g id="Landing-Page" transform="translate(-1045.000000, -940.000000)">
            <g id="div-1" transform="translate(200.000000, 798.000000)">
                <g id="dashboard" transform="translate(846.000000, 143.000000)">
                    <path d="M62.7146371,37.8503245 C62.7146371,51.8554566 51.34125,63.2088151 37.3114113,63.2088151 C23.2815726,63.2088151 11.9081855,51.8554566 11.9081855,37.8503245 C11.9081855,23.8451925 23.2815726,12.491834 37.3114113,12.491834 C51.34125,12.491834 62.7146371,23.8451925 62.7146371,37.8503245" id="Fill-1" fill="#E9EBEC"></path>
                    <path d="M23.8732258,47.8096906 C26.7837097,52.4044075 31.9042742,55.4631245 37.7530645,55.4631245 C43.6018548,55.4631245 48.7212097,52.4044075 51.6316935,47.8096906" id="Stroke-3" stroke="#BCC0C4" stroke-width="2"></path>
                    <path d="M18.7757661,15.1362415 C12.3414919,20.140317 8.19834677,28.1898264 8.19834677,36.6426566 L23.1572177,36.6426566 C23.1572177,33.0200151 24.7370565,29.7741283 27.2386694,27.5027321 L18.7757661,15.1362415 Z" id="Fill-5" fill="#EB2227"></path>
                    <path d="M18.7757661,15.1362415 C12.3414919,20.140317 8.19834677,28.1898264 8.19834677,36.6426566 L23.1572177,36.6426566 C23.1572177,33.0200151 24.7370565,29.7741283 27.2386694,27.5027321 L18.7757661,15.1362415 Z" id="Stroke-7" stroke="#333333" stroke-width="2"></path>
                    <path d="M37.5677419,8.52902642 C32.4677419,8.52902642 27.6967742,9.92495094 23.6080645,12.3472906 L32.0721774,24.7524226 C33.7306452,23.9337057 35.5923387,23.4615547 37.5677419,23.4615547 C39.5431452,23.4615547 41.4048387,23.9337057 43.0633065,24.7524226 L51.5274194,12.3472906 C47.4387097,9.92495094 42.6677419,8.52902642 37.5677419,8.52902642" id="Fill-9" fill="#EB2227"></path>
                    <path d="M37.5677419,8.52902642 C32.4677419,8.52902642 27.6967742,9.92495094 23.6080645,12.3472906 L32.0721774,24.7524226 C33.7306452,23.9337057 35.5923387,23.4615547 37.5677419,23.4615547 C39.5431452,23.4615547 41.4048387,23.9337057 43.0633065,24.7524226 L51.5274194,12.3472906 C47.4387097,9.92495094 42.6677419,8.52902642 37.5677419,8.52902642 Z" id="Stroke-11" stroke="#333333" stroke-width="2"></path>
                    <path d="M56.3814919,15.4405434 L48.0927823,27.5558642 C48.3661694,27.8034113 48.622621,28.0835623 48.8693952,28.3564679 L51.9891532,35.092166 C52.0532661,35.5788075 52.0895565,35.4351094 52.0895565,36.6426566 L66.7411694,36.6426566 C66.7411694,28.1898264 62.6839113,20.3419774 56.3814919,15.4405434" id="Fill-13" fill="#FFFFFF"></path>
                    <path d="M51.9887903,35.0926491 C52.0529032,35.578083 52.0904032,35.4355925 52.0904032,36.6431396 L66.7420161,36.6431396 C66.7420161,28.1903094 62.6835484,20.3424604 56.381129,15.4410264 L48.0924194,27.5551396 C48.3658065,27.8026868 48.6222581,28.0828377 48.8690323,28.3569509" id="Stroke-15" stroke="#333333" stroke-width="2"></path>
                    <path d="M54.9746371,29.2017509 L40.8105242,33.3412226 C39.32625,32.4319396 37.4318952,32.262883 35.7456048,33.0695245 C33.1060887,34.3338264 31.9919758,37.4939774 33.2585081,40.1288453 C34.5238306,42.7625057 37.6895565,43.8746566 40.3302823,42.6103547 C42.0153629,41.8037132 43.0689919,40.2218264 43.2879435,38.4986566 L55.3883468,30.0627321 L54.9746371,29.2017509 Z" id="Fill-17" fill="#FFFFFF"></path>
                    <path d="M54.9746371,29.2017509 L40.8105242,33.3412226 C39.32625,32.4319396 37.4318952,32.262883 35.7456048,33.0695245 C33.1060887,34.3338264 31.9919758,37.4939774 33.2585081,40.1288453 C34.5238306,42.7625057 37.6895565,43.8746566 40.3302823,42.6103547 C42.0153629,41.8037132 43.0689919,40.2218264 43.2879435,38.4986566 L55.3883468,30.0627321 L54.9746371,29.2017509 Z" id="Stroke-19" stroke="#333333" stroke-width="2"></path>
                    <path d="M14.5147984,7.91523019 C5.6853629,14.7825509 -0.000120967742,25.4886642 -0.000120967742,37.5267019" id="Stroke-21" stroke="#BCC0C4" stroke-width="2"></path>
                    <path d="M56.7500806,5.24003019 C51.1395968,1.91565283 44.5916129,0.000483018868 37.593629,0.000483018868 C30.5944355,0.000483018868 24.0476613,1.91565283 18.4359677,5.24003019" id="Stroke-23" stroke="#BCC0C4" stroke-width="2"></path>
                    <path d="M74.9189516,37.4081208 C74.9189516,25.6164226 69.3495968,15.130083 60.7016129,8.40283774" id="Stroke-25" stroke="#BCC0C4" stroke-width="2"></path>
                </g>
            </g>
        </g>
    </g>
</svg>