<?xml version="1.0" encoding="utf-8"?>
<!-- Generator: Adobe Illustrator 21.0.2, SVG Export Plug-In . SVG Version: 6.00 Build 0)  -->
<svg version="1.1" id="Layer_1" xmlns="http://www.w3.org/2000/svg" xmlns:xlink="http://www.w3.org/1999/xlink" x="0px" y="0px"
	 viewBox="0 0 300 300" style="enable-background:new 0 0 300 300;" xml:space="preserve">
<style type="text/css">
	.st0{fill:#4D4D4D;}
</style>
<path class="st0" d="M202.7,118.4L153,168.1c-1.7,1.7-4.6,1.7-6.2,0L97,118.4c0.8-3.4,3.8-5.9,7.4-5.9h90.9
	C198.9,112.5,202,115,202.7,118.4 M142.3,172.6l-19.2-19.2l-26.2,26.2c0.3,3.9,3.6,7,7.5,7h90.9c4,0,7.3-3.1,7.5-7l-26.2-26.2
	l-19.2,19.2c-2,2-4.7,3.1-7.6,3.1C147,175.7,144.3,174.6,142.3,172.6 M181.1,148.9l21.8,21.8v-43.5L181.1,148.9z M118.6,148.9
	l-21.8-21.8v43.5L118.6,148.9z"/>
</svg>
