<?xml version="1.0" encoding="utf-8"?>
<!-- Generator: Adobe Illustrator 21.0.2, SVG Export Plug-In . SVG Version: 6.00 Build 0)  -->
<svg version="1.1" id="Layer_1" xmlns="http://www.w3.org/2000/svg" xmlns:xlink="http://www.w3.org/1999/xlink" x="0px" y="0px"
	 viewBox="0 0 300 300" style="enable-background:new 0 0 300 300;" xml:space="preserve">
<style type="text/css">
	.st0{fill:#4D4D4D;}
</style>
<path class="st0" d="M197.1,133.2l-41.7-35.6c-0.8-0.7-1.8-1.2-2.8-1.6c-0.5-0.2-1.1-0.3-1.6-0.4c-0.5-0.1-1.1-0.1-1.6-0.1
	c-2.2,0-4.4,0.7-6.1,2.1l-41.7,35.6c0,0,0,0,0,0c-3.3,2.9-6.1,8.8-6.1,13.2v48.2c0,2.8,1.5,5.3,3.7,6.7c1.2,0.8,2.7,1.3,4.3,1.3h2.8
	h86.2h2.8c1.6,0,3-0.5,4.3-1.3c2.2-1.4,3.7-3.9,3.7-6.7v-48.2C203.2,142,200.5,136.1,197.1,133.2z M147.8,103
	c0.1-0.1,0.2-0.1,0.3-0.2c0.2-0.1,0.5-0.2,0.8-0.2c0.1,0,0.3,0,0.5,0c0.2,0,0.3,0,0.5,0c0.4,0.1,0.8,0.2,1.1,0.4l41.6,35.4
	l-32.2,27.5l-4.8-4.1c-1.7-1.4-3.9-2.1-6.1-2.1c-2.2,0-4.4,0.7-6.1,2.1l-4.8,4.1l-32.2-27.5L147.8,103z M103.4,195.6
	c-0.5,0-1-0.5-1-1v-48.2c0-0.5,0.1-1.2,0.3-1.8l30.4,25.9l-29.4,25.1H103.4z M114.4,195.6l24-20.5l5.4-4.6l3.9-3.3
	c0.3-0.3,0.9-0.5,1.5-0.5c0.6,0,1.2,0.2,1.5,0.5l3.9,3.3l5.4,4.6l24,20.5H114.4z M165.6,170.5l30.4-25.9c0.2,0.7,0.3,1.3,0.3,1.8
	v48.2c0,0.5-0.5,1-1,1H195L165.6,170.5z"/>
</svg>
