<?xml version="1.0" encoding="UTF-8"?>
<svg width="75px" height="63px" viewBox="0 0 75 63" version="1.1" xmlns="http://www.w3.org/2000/svg" xmlns:xlink="http://www.w3.org/1999/xlink">
    <!-- Generator: Sketch 43.2 (39069) - http://www.bohemiancoding.com/sketch -->
    <title>graph</title>
    <desc>Created with Sketch.</desc>
    <defs>
        <polygon id="path-1" points="0 63 75 63 75 0 0 0"></polygon>
    </defs>
    <g id="Page-1" stroke="none" stroke-width="1" fill="none" fill-rule="evenodd">
        <g id="Landing-Page" transform="translate(-316.000000, -941.000000)">
            <g id="div-1" transform="translate(200.000000, 798.000000)">
                <g id="graph" transform="translate(116.000000, 143.000000)">
                    <path d="M73.828125,34.4166667 C73.828125,46.9816667 63.5976562,57.1666667 50.9765625,57.1666667 C38.3554688,57.1666667 28.125,46.9816667 28.125,34.4166667 C28.125,21.8516667 38.3554688,11.6666667 50.9765625,11.6666667 C63.5976562,11.6666667 73.828125,21.8516667 73.828125,34.4166667 Z" id="Fill-1" fill="#E9EBEC"></path>
                    <mask id="mask-2" fill="white">
                        <use xlink:href="#path-1"></use>
                    </mask>
                    <g id="Clip-4"></g>
                    <polygon id="Fill-3" fill="#EB2227" mask="url(#mask-2)" points="8.203125 61.8333333 22.265625 61.8333333 22.265625 47.8333333 8.203125 47.8333333"></polygon>
                    <polygon id="Stroke-5" stroke="#333333" stroke-width="2" mask="url(#mask-2)" points="8.203125 61.8333333 22.265625 61.8333333 22.265625 47.8333333 8.203125 47.8333333"></polygon>
                    <polygon id="Fill-6" fill="#E9EBEC" mask="url(#mask-2)" points="22.265625 61.8333333 36.328125 61.8333333 36.328125 30.3333333 22.265625 30.3333333"></polygon>
                    <polygon id="Stroke-7" stroke="#333333" stroke-width="2" mask="url(#mask-2)" points="22.265625 61.8333333 36.328125 61.8333333 36.328125 30.3333333 22.265625 30.3333333"></polygon>
                    <polygon id="Fill-8" fill="#EB2227" mask="url(#mask-2)" points="36.328125 61.8333333 50.390625 61.8333333 50.390625 40.8333333 36.328125 40.8333333"></polygon>
                    <polygon id="Stroke-9" stroke="#333333" stroke-width="2" mask="url(#mask-2)" points="36.328125 61.8333333 50.390625 61.8333333 50.390625 40.8333333 36.328125 40.8333333"></polygon>
                    <polygon id="Fill-10" fill="#FFFFFF" mask="url(#mask-2)" points="50.390625 61.8333333 64.453125 61.8333333 64.453125 24.5 50.390625 24.5"></polygon>
                    <polygon id="Stroke-11" stroke="#333333" stroke-width="2" mask="url(#mask-2)" points="50.390625 61.8333333 64.453125 61.8333333 64.453125 24.5 50.390625 24.5"></polygon>
                    <polyline id="Stroke-12" stroke="#333333" stroke-width="2" mask="url(#mask-2)" points="53.90625 1.16666667 64.453125 1.16666667 64.453125 11.6666667"></polyline>
                    <path d="M28.125,1.16666667 L18.75,10.5" id="Stroke-13" stroke="#BCC0C4" stroke-width="2" mask="url(#mask-2)"></path>
                    <path d="M16.40625,12.8333333 L14.0625,15.1666667" id="Stroke-14" stroke="#BCC0C4" stroke-width="2" mask="url(#mask-2)"></path>
                    <path d="M72.65625,61.8333333 L75,61.8333333" id="Stroke-15" stroke="#333333" stroke-width="2" mask="url(#mask-2)"></path>
                    <path d="M0,61.8333333 L2.34375,61.8333333" id="Stroke-16" stroke="#333333" stroke-width="2" mask="url(#mask-2)"></path>
                    <path d="M70.3125,61.8333333 L4.6875,61.8333333" id="Stroke-17" stroke="#333333" stroke-width="2" mask="url(#mask-2)"></path>
                    <polyline id="Stroke-18" stroke="#333333" stroke-width="2" mask="url(#mask-2)" points="64.453125 1.16666667 42.1875 23.3333333 30.46875 11.6666667 17.578125 24.5"></polyline>
                    <path d="M15.234375,26.8333333 L11.71875,30.3333333" id="Stroke-19" stroke="#333333" stroke-width="2" mask="url(#mask-2)"></path>
                    <path d="M9.375,32.6666667 L7.03125,35" id="Stroke-20" stroke="#333333" stroke-width="2" mask="url(#mask-2)"></path>
                    <path d="M4.6875,37.3333333 L2.34375,39.6666667" id="Stroke-21" stroke="#333333" stroke-width="2" mask="url(#mask-2)"></path>
                    <path d="M11.71875,17.5 L9.375,19.8333333" id="Stroke-22" stroke="#BCC0C4" stroke-width="2" mask="url(#mask-2)"></path>
                    <path d="M7.03125,22.1666667 L4.6875,24.5" id="Stroke-23" stroke="#BCC0C4" stroke-width="2" mask="url(#mask-2)"></path>
                </g>
            </g>
        </g>
    </g>
</svg>