<?xml version="1.0" encoding="UTF-8"?>
<svg width="34px" height="34px" viewBox="0 0 34 34" version="1.1" xmlns="http://www.w3.org/2000/svg" xmlns:xlink="http://www.w3.org/1999/xlink">
    <!-- Generator: Sketch 43.2 (39069) - http://www.bohemiancoding.com/sketch -->
    <title>Page 1</title>
    <desc>Created with Sketch.</desc>
    <defs>
        <polygon id="path-1" points="33.9999927 34 0 34 0 7.28571428e-06 33.9999927 7.28571428e-06"></polygon>
    </defs>
    <g id="Page-1" stroke="none" stroke-width="1" fill="none" fill-rule="evenodd">
        <g id="Register" transform="translate(-180.000000, -24.000000)">
            <g id="Sticky-Nav">
                <g id="Page-1" transform="translate(180.000000, 24.000000)">
                    <mask id="mask-2" fill="white">
                        <use xlink:href="#path-1"></use>
                    </mask>
                    <g id="Clip-2"></g>
                    <path d="M23.877197,9.31736729 L22.4748913,10.7194059 L19.7631241,8.00661871 L21.1659399,6.60404586 C21.5560899,6.21132157 22.1923999,6.21081157 22.5812384,6.60016014 L23.8823941,7.90129157 C24.2704313,8.28988729 24.2689013,8.92491014 23.877197,9.31736729 L23.877197,9.31736729 Z M13.9022527,19.2923116 L9.82812986,20.6523359 L11.1894413,16.5792573 L18.6062013,9.16223014 L21.3195227,11.8753087 L13.9022527,19.2923116 Z M30.8124927,7.28571428e-06 L3.18749271,7.28571428e-06 C1.42981414,7.28571428e-06 -7.2857143e-06,1.42982871 -7.2857143e-06,3.18750729 L-7.2857143e-06,23.9062573 C-7.2857143e-06,25.6639359 1.42981414,27.0937573 3.18749271,27.0937573 L7.43749271,27.0937573 L7.43749271,32.9375073 C7.43749271,33.3673159 7.69637843,33.7546001 8.09325557,33.9190873 C8.22476271,33.9735359 8.36304557,34.0000073 8.49974986,34.0000073 C8.77624271,34.0000073 9.04785414,33.8920816 9.25148986,33.688713 L15.8462027,27.0937573 L30.8124927,27.0937573 C32.5701713,27.0937573 33.9999927,25.6639359 33.9999927,23.9062573 L33.9999927,3.18750729 C33.9999927,1.42982871 32.5701713,7.28571428e-06 30.8124927,7.28571428e-06 L30.8124927,7.28571428e-06 Z" id="Fill-1" fill="#EB2227" mask="url(#mask-2)"></path>
                </g>
            </g>
        </g>
    </g>
</svg>