<?xml version="1.0" encoding="UTF-8"?>
<svg width="24px" height="19px" viewBox="0 0 24 19" version="1.1" xmlns="http://www.w3.org/2000/svg" xmlns:xlink="http://www.w3.org/1999/xlink">
    <!-- Generator: Sketch 43.2 (39069) - http://www.bohemiancoding.com/sketch -->
    <title>Shape</title>
    <desc>Created with Sketch.</desc>
    <defs></defs>
    <g id="Page-1" stroke="none" stroke-width="1" fill="none" fill-rule="evenodd">
        <g id="Dashboard" transform="translate(-33.000000, -431.000000)" fill-rule="nonzero" fill="#FFFFFF">
            <g id="iconmonstr-gear-10-(1)" transform="translate(33.000000, 431.000000)">
                <path d="M17,9.645 L17,7.356 C15.83,6.939 15.093,6.823 14.72,5.925 C14.347,5.025 14.79,4.413 15.32,3.3 L13.702,1.681 C12.597,2.206 11.979,2.655 11.076,2.281 C10.176,1.907 10.059,1.164 9.645,0 L7.355,0 C6.943,1.158 6.825,1.907 5.924,2.28 L5.923,2.28 C5.023,2.654 4.413,2.21 3.298,1.68 L1.681,3.299 C2.208,4.409 2.654,5.023 2.281,5.924 C1.906,6.825 1.158,6.943 0,7.355 L0,9.644 C1.155,10.056 1.907,10.175 2.28,11.075 C2.656,11.983 2.199,12.609 1.68,13.7 L3.298,15.319 C4.405,14.794 5.022,14.345 5.923,14.719 L5.924,14.719 C6.824,15.092 6.942,15.837 7.355,16.999 L9.644,16.999 C10.056,15.841 10.174,15.094 11.081,14.717 L11.082,14.717 C11.976,14.345 12.583,14.788 13.701,15.319 L15.319,13.7 C14.794,12.593 14.345,11.977 14.718,11.075 C15.092,10.176 15.844,10.056 17,9.645 Z M8.5,11.334 C6.936,11.334 5.667,10.065 5.667,8.5 C5.667,6.935 6.936,5.666 8.5,5.666 C10.064,5.666 11.333,6.935 11.333,8.5 C11.333,10.065 10.064,11.334 8.5,11.334 Z M24,15.539 L24,14.462 C23.45,14.266 23.103,14.211 22.927,13.789 C22.751,13.365 22.96,13.078 23.209,12.553 L22.447,11.791 C21.927,12.039 21.636,12.249 21.212,12.074 C20.788,11.899 20.733,11.549 20.538,11.001 L19.462,11.001 C19.268,11.546 19.212,11.898 18.788,12.074 C18.364,12.25 18.077,12.041 17.553,11.791 L16.791,12.553 C17.039,13.076 17.249,13.365 17.073,13.789 C16.897,14.213 16.545,14.268 16,14.462 L16,15.539 C16.544,15.732 16.897,15.789 17.073,16.212 C17.25,16.639 17.035,16.934 16.791,17.448 L17.553,18.21 C18.074,17.962 18.365,17.752 18.788,17.927 C19.212,18.102 19.267,18.453 19.462,19 L20.538,19 C20.732,18.455 20.788,18.103 21.214,17.926 L21.215,17.926 C21.636,17.751 21.921,17.96 22.447,18.21 L23.209,17.448 C22.962,16.927 22.751,16.636 22.927,16.213 C23.103,15.79 23.456,15.732 24,15.539 Z M20,16.333 C19.264,16.333 18.667,15.736 18.667,15 C18.667,14.264 19.264,13.667 20,13.667 C20.736,13.667 21.333,14.264 21.333,15 C21.333,15.736 20.736,16.333 20,16.333 Z" id="Shape"></path>
            </g>
        </g>
    </g>
</svg>