<?xml version="1.0" encoding="UTF-8"?>
<svg width="24px" height="18px" viewBox="0 0 24 18" version="1.1" xmlns="http://www.w3.org/2000/svg" xmlns:xlink="http://www.w3.org/1999/xlink">
    <!-- Generator: Sketch 43.2 (39069) - http://www.bohemiancoding.com/sketch -->
    <title>Shape</title>
    <desc>Created with Sketch.</desc>
    <defs></defs>
    <g id="Page-1" stroke="none" stroke-width="1" fill="none" fill-rule="evenodd">
        <g id="Dashboard" transform="translate(-33.000000, -223.000000)" fill-rule="nonzero" fill="#FFFFFF">
            <g id="iconmonstr-dashboard-7" transform="translate(33.000000, 223.000000)">
                <path d="M20.021,9.593 C19.88,9.166 19.707,8.749 19.505,8.351 L17.051,9.457 C17.268,9.851 17.441,10.267 17.568,10.699 L20.021,9.593 L20.021,9.593 Z M7.448,8.69 C7.719,8.336 8.028,8.015 8.367,7.733 L6.477,5.764 C6.149,6.058 5.84,6.379 5.559,6.721 L7.448,8.69 L7.448,8.69 Z M9.163,7.175 C9.542,6.954 9.944,6.779 10.361,6.652 L9.327,4.083 C8.917,4.225 8.515,4.401 8.129,4.607 L9.163,7.175 Z M6.404,10.791 C6.525,10.356 6.692,9.937 6.902,9.541 L4.433,8.475 C4.236,8.878 4.069,9.297 3.935,9.725 L6.404,10.791 Z M15.838,4.591 C15.451,4.386 15.048,4.212 14.638,4.072 L13.614,6.645 C14.031,6.77 14.434,6.944 14.814,7.164 L15.838,4.591 L15.838,4.591 Z M18.439,6.721 C18.157,6.379 17.849,6.058 17.521,5.764 L15.631,7.733 C15.97,8.015 16.278,8.337 16.549,8.69 L18.439,6.721 Z M12.648,3.662 C12.429,3.644 12.211,3.636 11.999,3.636 C11.787,3.636 11.568,3.645 11.349,3.662 L11.349,6.446 C11.565,6.421 11.783,6.408 11.999,6.408 C12.215,6.408 12.433,6.42 12.648,6.446 L12.648,3.662 Z M12,18 C10.706,18 9.657,16.951 9.657,15.657 C9.657,14.774 10.146,14.005 10.867,13.606 L12,8 L13.133,13.605 C13.855,14.004 14.343,14.773 14.343,15.656 C14.343,16.951 13.294,18 12,18 L12,18 Z M24,12 C24,14.184 23.414,16.233 22.39,17.999 L20.654,16.996 C21.505,15.525 22,13.822 22,12 C22,6.477 17.523,2 12,2 C6.477,2 2,6.477 2,12 C2,13.822 2.495,15.525 3.346,16.996 L1.61,17.999 C0.586,16.233 0,14.184 0,12 C0,5.383 5.383,0 12,0 C18.617,0 24,5.383 24,12 Z" id="Shape"></path>
            </g>
        </g>
    </g>
</svg>