<?xml version="1.0" encoding="UTF-8"?>
<svg width="24px" height="22px" viewBox="0 0 24 22" version="1.1" xmlns="http://www.w3.org/2000/svg" xmlns:xlink="http://www.w3.org/1999/xlink">
    <!-- Generator: Sketch 43.2 (39069) - http://www.bohemiancoding.com/sketch -->
    <title>Shape</title>
    <desc>Created with Sketch.</desc>
    <defs></defs>
    <g id="Page-1" stroke="none" stroke-width="1" fill="none" fill-rule="evenodd">
        <g id="Dashboard" transform="translate(-33.000000, -291.000000)" fill-rule="nonzero" fill="#FFFFFF">
            <g id="iconmonstr-speech-bubble-28" transform="translate(33.000000, 291.000000)">
                <path d="M1.99900016,8.352 C1.99900016,10.225 2.84800016,11.295 3.68200016,12.295 C3.71300016,13.295 3.76700016,13.963 3.34900016,15.478 C5.09700016,14.92 5.38700016,14.7 6.35700016,14.104 C7.35700016,14.348 7.83100016,14.485 8.96800016,14.595 C8.87400016,15.303 8.88700016,15.87 9.02300016,16.618 C8.27100016,16.558 7.49500016,16.44 6.69300016,16.244 C5.29600016,17.101 2.21200016,17.969 0.0440001589,18.359 C0.855000159,16.764 1.75200016,14.574 1.70500016,13.047 C0.615000159,11.742 1.58903248e-07,10.063 1.58903248e-07,8.352 C-0.000999841097,3.526 4.71800016,0 9.99900016,0 C15.2360002,0 19.9760002,3.484 19.9970002,8.318 C19.3530002,8.143 18.6750002,8.041 17.9760002,8.004 C17.7470002,4.664 14.2630002,2 9.99900016,2 C5.58800016,2 1.99900016,4.85 1.99900016,8.352 L1.99900016,8.352 Z M22.8820002,18.521 C22.8530002,19.522 23.4400002,20.956 23.9700002,22 C22.5510002,21.742 20.5320002,21.176 19.6180002,20.615 C18.8460002,20.803 18.1040002,20.889 17.4050002,20.889 C13.5400002,20.889 10.9070002,18.246 10.9070002,15.447 C10.9070002,12.273 14.0170002,9.98 17.4530002,9.98 C20.9100002,9.98 23.9990002,12.289 23.9990002,15.447 C23.9990002,16.567 23.5960002,17.668 22.8820002,18.521 L22.8820002,18.521 Z M15.3190002,15.5 C15.3190002,15.047 14.9510002,14.68 14.4990002,14.68 C14.0470002,14.68 13.6790002,15.047 13.6790002,15.5 C13.6790002,15.953 14.0470002,16.32 14.4990002,16.32 C14.9510002,16.32 15.3190002,15.953 15.3190002,15.5 Z M18.3190002,15.5 C18.3190002,15.047 17.9510002,14.68 17.4990002,14.68 C17.0470002,14.68 16.6790002,15.047 16.6790002,15.5 C16.6790002,15.953 17.0470002,16.32 17.4990002,16.32 C17.9510002,16.32 18.3190002,15.953 18.3190002,15.5 Z M21.3190002,15.5 C21.3190002,15.047 20.9510002,14.68 20.4990002,14.68 C20.0470002,14.68 19.6790002,15.047 19.6790002,15.5 C19.6790002,15.953 20.0470002,16.32 20.4990002,16.32 C20.9510002,16.32 21.3190002,15.953 21.3190002,15.5 Z" id="Shape"></path>
            </g>
        </g>
    </g>
</svg>