<?xml version="1.0" encoding="UTF-8"?>
<svg width="289px" height="260px" viewBox="0 0 289 260" version="1.1" xmlns="http://www.w3.org/2000/svg" xmlns:xlink="http://www.w3.org/1999/xlink">
    <!-- Generator: Sketch 43.2 (39069) - http://www.bohemiancoding.com/sketch -->
    <title>pie chart</title>
    <desc>Created with Sketch.</desc>
    <defs></defs>
    <g id="Page-1" stroke="none" stroke-width="1" fill="none" fill-rule="evenodd">
        <g id="Landing-Page" transform="translate(-878.000000, -1953.000000)">
            <g id="pie-chart" transform="translate(878.000000, 1953.000000)">
                <path d="M209.032258,104.529148 C209.032258,162.257112 162.241548,209.058296 104.516129,209.058296 C46.7907097,209.058296 0,162.257112 0,104.529148 C0,46.8011839 46.7907097,0 104.516129,0 C162.241548,0 209.032258,46.8011839 209.032258,104.529148" id="Fill-1" fill="#E9EBEC"></path>
                <path d="M288,110.206278 C288,145.983121 235.732645,179.892377 171.870968,179.892377 C159.770323,179.892377 143.224258,178.150224 134.709677,175.246637 L134.709677,254.224215 C146.322581,257.903641 159.68671,258.869955 171.870968,258.869955 C235.732645,258.869955 288,229.606439 288,193.829596 L288,110.206278" id="Fill-3" fill="#FFFFFF"></path>
                <path d="M171.313084,47.8497632 C107.451406,47.8497632 54.2410839,76.6626422 54.2410839,112.434839 C54.2410839,118.581153 55.7693419,124.523055 58.621471,130.158337 L134.709213,175.245243 C143.223794,178.14883 159.769858,179.890983 171.870503,179.890983 C235.732181,179.890983 287.999535,145.981727 287.999535,110.204884 C287.999535,74.432687 235.174761,47.8497632 171.313084,47.8497632" id="Fill-5" fill="#FFFFFF"></path>
                <path d="M58.6224,130.157408 C55.770271,124.526771 54.2420129,118.580224 54.2420129,112.438556 C54.2420129,76.661713 107.452335,47.8488341 171.314013,47.8488341 C235.17569,47.8488341 288.000465,74.4317578 288.000465,110.208601 C288.000465,145.980798 235.73311,179.8947 171.871432,179.8947 C159.766142,179.8947 143.224723,178.152547 134.710142,175.24896" id="Stroke-7" stroke="#333333" stroke-width="2"></path>
                <path d="M169.936723,110.380029 L88.4420129,187.462145 L88.2562065,258.871813 C77.2053677,258.244639 36.2814968,240.753428 27.8691097,212.414414 C27.7436903,211.991652 28.1478194,136.949015 28.1478194,136.949015 L169.936723,110.380029 Z" id="Fill-9" fill="#EB2227"></path>
                <path d="M28.1478194,136.949015 L169.936723,110.380029 L88.4420129,187.462145 L88.2562065,258.871813 C77.2053677,258.244639 36.2814968,240.753428 27.8691097,212.414414 C27.7436903,211.991652 28.1478194,136.949015 28.1478194,136.949015 Z" id="Stroke-11" stroke="#333333" stroke-width="2"></path>
                <path d="M153.290323,226.349776 L153.290323,193.829596" id="Stroke-13" stroke="#9B9B9B" stroke-width="2"></path>
                <path d="M153.290323,244.932735 L153.290323,235.641256" id="Stroke-15" stroke="#9B9B9B" stroke-width="2"></path>
                <path d="M54.2406194,112.436233 L54.3056516,131.53487" id="Stroke-17" stroke="#333333" stroke-width="2"></path>
                <path d="M169.799316,110.206278 L134.709677,175.246637 L134.709677,254.224215 C146.322581,257.903641 159.68671,258.869955 171.870968,258.869955 C235.732645,258.869955 288,229.606439 288,193.829596 L288,110.206278" id="Stroke-19" stroke="#333333" stroke-width="2"></path>
                <path d="M88.4578065,187.464468 C55.7605161,177.606208 32.3953548,158.577257 28.1496774,136.946692" id="Stroke-21" stroke="#333333" stroke-width="2"></path>
            </g>
        </g>
    </g>
</svg>