<?xml version="1.0" encoding="utf-8"?>
<!-- Generator: Adobe Illustrator 21.0.2, SVG Export Plug-In . SVG Version: 6.00 Build 0)  -->
<svg version="1.1" id="Layer_1" xmlns="http://www.w3.org/2000/svg" xmlns:xlink="http://www.w3.org/1999/xlink" x="0px" y="0px"
	 viewBox="0 0 200 200" enable-background="new 0 0 200 200" xml:space="preserve">
<g id="OWNER---Portal">
	<g id="_x31_6---Dashboard---Incomplete" transform="translate(-502.000000, -837.000000)">
		<g id="Availability-Icon" transform="translate(502.000000, 837.000000)">
			<path id="Combined-Shape" d="M45.4,45.7V26.1h17.5v19.6H45.4z M137.1,45.7V26.1h17.5v19.6H137.1z M22.4,173.9V65.2h155.2v108.7
				H22.4z M127.3,112.8h27.3v-27h-27.3V112.8z M86.3,112.8h27.3v-27H86.3V112.8z M45.4,112.8h27.3v-27H45.4V112.8z M127.3,153.3
				h27.3v-27h-27.3V153.3z M86.3,153.3h27.3v-27H86.3V153.3z M45.4,153.3h27.3v-27H45.4V153.3z M22.4,58.5v-6.4h155.2v6.4H22.4z"/>
		</g>
	</g>
</g>
</svg>
