<?xml version="1.0" encoding="utf-8"?>
<!-- Generator: Adobe Illustrator 21.0.2, SVG Export Plug-In . SVG Version: 6.00 Build 0)  -->
<svg version="1.1" id="Layer_1" xmlns="http://www.w3.org/2000/svg" xmlns:xlink="http://www.w3.org/1999/xlink" x="0px" y="0px"
	 viewBox="0 0 200 200" enable-background="new 0 0 200 200" xml:space="preserve">
<g>
	<g>
		<path d="M167.3,62.9H152c-5.2,0-10.1-2.4-13.4-6.4l-8.6-10.8c-2.9-3.6-7.2-5.7-11.8-5.7H81.7c-4.6,0-9,2.1-11.8,5.7l-8.6,10.8
			c-3.2,4.1-8.2,6.4-13.4,6.4H32.7c-5.7,0-10.3,4.6-10.3,10.3v76.5c0,5.7,4.6,10.3,10.3,10.3h134.5c5.7,0,10.3-4.6,10.3-10.3V73.2
			C177.6,67.5,173,62.9,167.3,62.9z M40.8,87c-3,0-5.4-2.4-5.4-5.4c0-3,2.4-5.4,5.4-5.4c3,0,5.4,2.4,5.4,5.4
			C46.2,84.6,43.8,87,40.8,87z M74.3,55.8l2.9-4.2c1.8-2.6,4.7-4.1,7.8-4.1h30c3.1,0,6,1.5,7.8,4.1l2.9,4.2c0.5,0.7,0.5,1.6,0.2,2.4
			c-0.4,0.8-1.2,1.2-2,1.2H76.2c-0.8,0-1.6-0.5-2-1.2C73.7,57.4,73.8,56.5,74.3,55.8z M100,146.1c-20,0-36.3-16.3-36.3-36.3
			S80,73.6,100,73.6c20,0,36.3,16.3,36.3,36.3S120,146.1,100,146.1z M166.5,83.6c0,1.5-1.2,2.8-2.8,2.8h-15.9
			c-1.5,0-2.8-1.2-2.8-2.8v-6.8c0-1.5,1.2-2.8,2.8-2.8h15.9c1.5,0,2.8,1.2,2.8,2.8V83.6z"/>
		<circle cx="99.9" cy="109.7" r="25.7"/>
	</g>
	<path d="M47.9,54.7v4.5H33.6v-4.5c0-1.5,1.2-2.7,2.7-2.7h9C46.7,52,47.9,53.2,47.9,54.7z"/>
</g>
</svg>
