<?xml version="1.0" encoding="utf-8"?>
<!-- Generator: Adobe Illustrator 21.0.2, SVG Export Plug-In . SVG Version: 6.00 Build 0)  -->
<svg version="1.1" id="Layer_1" xmlns="http://www.w3.org/2000/svg" xmlns:xlink="http://www.w3.org/1999/xlink" x="0px" y="0px"
	 viewBox="0 0 200 200" enable-background="new 0 0 200 200" xml:space="preserve">
<g>
	<path d="M101.1,87.6c-5.1,0-9.9,1.3-14.1,3.7c6.4,0.5,11.4,5.8,11.4,12.4c0,6.9-5.6,12.5-12.5,12.5c-5.9,0-10.8-4.1-12.1-9.5
		c-1.2,3.2-1.9,6.6-1.9,10.2c0,16.1,13.1,29.1,29.1,29.1c16.1,0,29.2-13.1,29.2-29.1C130.3,100.6,117.2,87.6,101.1,87.6z"/>
	<path d="M169.3,59.5h-29.9c-6.2,0-11.2-5-11.2-11.2V35c0-4.4-3.6-8-8-8H77.9c-4.4,0-8,3.6-8,8v13.3c0,6.2-5,11.2-11.2,11.2H30.7
		c-6.5,0-11.8,5.3-11.8,11.8v90c0,6.5,5.3,11.8,11.8,11.8h138.6c6.5,0,11.8-5.3,11.8-11.8v-90C181.1,64.8,175.8,59.5,169.3,59.5z
		 M80.2,37.2h37.7v17.9H80.2V37.2z M101.1,158.6c-23.1,0-41.9-18.8-41.9-41.9c0-23.1,18.8-41.9,41.9-41.9
		c23.1,0,41.9,18.8,41.9,41.9C143,139.8,124.2,158.6,101.1,158.6z"/>
</g>
</svg>
