<?xml version="1.0" encoding="utf-8"?>
<!-- Generator: Adobe Illustrator 21.0.2, SVG Export Plug-In . SVG Version: 6.00 Build 0)  -->
<svg version="1.1" id="Layer_1" xmlns="http://www.w3.org/2000/svg" xmlns:xlink="http://www.w3.org/1999/xlink" x="0px" y="0px"
	 viewBox="0 0 200 200" enable-background="new 0 0 200 200" xml:space="preserve">
<g id="Landing-Page_6_">
	<g id="_x30_1---Landing-v4a---Vendor-Select_5_" transform="translate(-892.000000, -668.000000)">
		<g id="search-bar_5_" transform="translate(0.000000, 542.000000)">
			<path id="Transport-Icon" d="M1046.6,228.4c7.9,0,14.4,6.4,14.4,14.4c0,7.9-6.4,14.4-14.4,14.4c-7.9,0-14.4-6.4-14.4-14.4
				C1032.3,234.8,1038.7,228.4,1046.6,228.4L1046.6,228.4z M937.4,257.1c-7.9,0-14.4-6.4-14.4-14.4c0-7.9,6.4-14.4,14.4-14.4
				c7.9,0,14.4,6.4,14.4,14.4C951.7,250.7,945.3,257.1,937.4,257.1L937.4,257.1z M949.4,183.8c0.7-2,2.2-3.6,4.1-4.5
				c12.4-5.7,44.2-16.9,77.2-0.1c1.8,0.9,3.2,2.5,3.8,4.3l9.9,27.6c-41.1-4.9-64.4-5.1-104.9,0L949.4,183.8z M1081.2,242.8
				c0-12.9-7.8-24-19-29l-14.8-41.2c-0.6-1.7-1.8-3.1-3.3-4.1c-51.4-30.9-101.9-1.3-104,0c-1.6,0.9-2.7,2.4-3.4,4.1l-14.8,41.1
				c-11.1,4.9-19,16.1-19,29c0,12.2,7,22.9,17.3,28.1v20.8c0,3.2,2.6,5.7,5.7,5.7h17.3c3.2,0,5.8-2.6,5.8-5.7v-17.3h86.3v17.3
				c0,3.2,2.6,5.7,5.8,5.7h17.2c3.2,0,5.8-2.6,5.8-5.7v-20.8C1074.1,265.6,1081.2,255,1081.2,242.8L1081.2,242.8z"/>
		</g>
	</g>
</g>
</svg>
