<?xml version="1.0" encoding="utf-8"?>
<!-- Generator: Adobe Illustrator 21.0.2, SVG Export Plug-In . SVG Version: 6.00 Build 0)  -->
<svg version="1.1" id="Layer_1" xmlns="http://www.w3.org/2000/svg" xmlns:xlink="http://www.w3.org/1999/xlink" x="0px" y="0px"
	 viewBox="0 0 200 200" enable-background="new 0 0 200 200" xml:space="preserve">
<path d="M112.4,100l80.8-82.3c3.4-3.5,3.4-9.1-0.1-12.5c-3.5-3.4-9.1-3.4-12.5,0.1L100,87.4L19.4,5.3c-3.4-3.5-9-3.5-12.5-0.1
	c-3.5,3.4-3.5,9-0.1,12.5L87.6,100L6.8,182.3c-3.4,3.5-3.4,9.1,0.1,12.5c1.7,1.7,4,2.5,6.2,2.5c2.3,0,4.6-0.9,6.3-2.6l80.6-82.1
	l80.6,82.1c1.7,1.8,4,2.6,6.3,2.6c2.2,0,4.5-0.8,6.2-2.5c3.5-3.4,3.5-9,0.1-12.5L112.4,100z"/>
</svg>
