<?xml version="1.0" encoding="utf-8"?>
<!-- Generator: Adobe Illustrator 21.0.2, SVG Export Plug-In . SVG Version: 6.00 Build 0)  -->
<svg version="1.1" id="Layer_1" xmlns="http://www.w3.org/2000/svg" xmlns:xlink="http://www.w3.org/1999/xlink" x="0px" y="0px"
	 viewBox="0 0 200 200" enable-background="new 0 0 200 200" xml:space="preserve">
<g id="FAQ">
	<g id="_x30_9---FAQ" transform="translate(-626.000000, -588.000000)">
		<path id="Close-Icon" d="M634.9,761.4c-3,3-3,8.1,0,11.1l6.9,6.9c3,3,8.1,3,11.1,0l73.2-73.2l73.2,73.2c3,3,8.1,3,11.1,0l6.4-6.4
			c3-3,3-8.1,0-11.1l-73.2-73.2l74.1-74.1c3-3,2.6-7.7-0.4-10.7l-6.9-6.9c-3-3-7.7-3.4-10.7-0.4l-74.1,74.1L652,596.9
			c-3-3-8.1-3-11.1,0l-6.4,6.4c-3,3-3,8.1,0,11.1l73.7,73.7L634.9,761.4z"/>
	</g>
</g>
</svg>
