<?xml version="1.0" encoding="utf-8"?>
<!-- Generator: Adobe Illustrator 21.0.2, SVG Export Plug-In . SVG Version: 6.00 Build 0)  -->
<svg version="1.1" id="Layer_1" xmlns="http://www.w3.org/2000/svg" xmlns:xlink="http://www.w3.org/1999/xlink" x="0px" y="0px"
	 viewBox="0 0 200 200" enable-background="new 0 0 200 200" xml:space="preserve">
<g id="Landing-Page_3_">
	<g id="_x30_1---Landing-v4a---Vendor-Select_2_" transform="translate(-723.000000, -665.000000)">
		<g id="search-bar_2_" transform="translate(0.000000, 542.000000)">
			<path id="Lighting-Icon" d="M885.8,240.4c-4.7,1.1-9.3,2-14.1,2.9c0.3-6.6,0.4-13.3,0.1-19.9c4.9,0.9,9.8,2,14.7,3.2
				c0.3,0.1,0.6,0.1,0.9,0.1c0,0,0,0,0.1,0c0.1,1.4,0.1,2.7,0.1,4.1c0,3.3-0.2,6.5-0.7,9.6C886.6,240.3,886.2,240.3,885.8,240.4
				 M878.7,264.5c-0.2,0-0.4,0-0.7,0.1c-2.8,0.7-5.7,1.3-8.5,1.8c0.7-5.1,1.3-10.2,1.7-15.4c4.7-0.8,9.4-1.8,14.1-2.8
				C883.8,254,881.6,259.4,878.7,264.5 M866.7,181.7c3.3,3.1,6.3,6.6,8.9,10.4c-2.4-0.5-4.8-1-7.2-1.4
				C867.9,187.7,867.4,184.7,866.7,181.7 M864.3,244.5c-7.1,1.1-14.3,1.9-21.5,2.4c0.5-9.1,0.5-18.2,0.1-27.3
				c7.2,0.5,14.4,1.4,21.5,2.5C864.8,229.6,864.8,237,864.3,244.5 M858.1,286.6c-6.5,4.4-13.9,7.6-21.8,9.3c1.3-6,2.4-12,3.3-18
				c7-0.5,13.9-1.3,20.8-2.3C859.8,279.3,859,283,858.1,286.6 M835.5,247.3c-9,0.4-18.1,0.4-27.1-0.1c-0.5-9.3-0.5-18.6-0.1-28
				c9.1-0.5,18.2-0.5,27.3-0.1C836,228.6,836,237.9,835.5,247.3 M833.3,270.7c-7.6,0.3-15.2,0.3-22.8,0c-0.7-5.3-1.2-10.6-1.6-15.9
				c4.7,0.2,9.4,0.4,14.1,0.4c4,0,8-0.1,12-0.3C834.6,260.2,834,265.5,833.3,270.7 M828.6,297.1c-1.8,0.2-3.7,0.3-5.6,0.3
				c-2.7,0-5.4-0.2-8-0.5c-1.3-6.1-2.5-12.3-3.4-18.6c3.5,0.1,7,0.2,10.6,0.2c3.4,0,6.7-0.1,10.1-0.2
				C831.2,284.6,830,290.9,828.6,297.1 M803.8,187.5c-6.6,0.5-13.2,1.3-19.8,2.3c0.8-4.3,1.6-8.5,2.6-12.7c0.1-0.5,0.1-1,0.1-1.5
				c6.3-4.4,13.4-7.7,21-9.6C806.1,173.1,804.9,180.3,803.8,187.5 M783.1,267.9c-0.8-5.2-1.4-10.5-1.9-15.8c6.7,1,13.5,1.8,20.3,2.3
				c0.4,5.3,0.9,10.6,1.6,15.9C796.4,269.7,789.8,269,783.1,267.9 M782.8,197.7c6.6-1.1,13.3-2,20-2.5c-0.7,5.7-1.2,11.4-1.5,17.1
				c-6.8,0.5-13.6,1.3-20.3,2.4C781.4,208.9,782,203.3,782.8,197.7 M776.4,191.1c-2.1,0.4-4.2,0.8-6.3,1.3c2.3-3.4,4.9-6.5,7.7-9.4
				C777.4,185.7,776.9,188.4,776.4,191.1 M773.8,273.9c1,0.2,2,0.4,3,0.6c0.2,1.2,0.4,2.3,0.6,3.5
				C776.2,276.6,775,275.3,773.8,273.9 M767.5,264.8c-3-5.1-5.3-10.7-6.9-16.7c4.4,1,8.8,1.9,13.2,2.7c0.4,5.2,1,10.5,1.7,15.7
				C772.9,266,770.2,265.5,767.5,264.8 M759.1,240.3c-0.4-3.1-0.7-6.3-0.7-9.6c0-1.4,0.1-2.7,0.1-4.1c0.4,0,0.8,0,1.2-0.1
				c4.5-1.1,9-2.1,13.5-2.9c-0.2,6.5-0.1,13,0.1,19.5c-4.4-0.8-8.8-1.7-13.2-2.7C759.8,240.3,759.5,240.3,759.1,240.3 M810.3,194.6
				c7.7-0.4,15.5-0.5,23.2-0.1c0.7,5.7,1.3,11.4,1.7,17.1c-8.8-0.4-17.7-0.4-26.5,0.1C809.1,206,809.6,200.3,810.3,194.6
				 M858.1,176.7c1,4.2,1.9,8.4,2.7,12.7c-6.9-1-13.9-1.8-20.9-2.2c-1.1-7.3-2.4-14.6-4.1-21.9c8.1,1.7,15.6,4.9,22.3,9.4
				C858,175.4,857.9,176.1,858.1,176.7 M864,214.4c-7.1-1.1-14.3-1.8-21.5-2.4c-0.4-5.7-0.9-11.5-1.6-17.2
				c7.1,0.5,14.2,1.3,21.2,2.4C863,203,863.6,208.7,864,214.4 M837.3,158v-7.9c0-2.8-2.2-5-4.9-5h-2.2v-15.4h-9.7V145h-2.2
				c-2.7,0-4.9,2.2-4.9,5v7.1c-35.1,4.9-62.3,36-62.3,73.5c0,40.9,32.3,74.2,71.9,74.2c39.7,0,71.9-33.3,71.9-74.2
				C894.9,194.9,870.2,164.9,837.3,158"/>
		</g>
	</g>
</g>
</svg>
