<?xml version="1.0" encoding="utf-8"?>
<!-- Generator: Adobe Illustrator 21.0.2, SVG Export Plug-In . SVG Version: 6.00 Build 0)  -->
<svg version="1.1" id="Layer_1" xmlns="http://www.w3.org/2000/svg" xmlns:xlink="http://www.w3.org/1999/xlink" x="0px" y="0px"
	 viewBox="0 0 200 200" enable-background="new 0 0 200 200" xml:space="preserve">
<g id="Contact_1_">
	<g id="_x31_0---Contact_1_" transform="translate(-211.000000, -469.000000)">
		<path id="Email-Icon" d="M386.7,495c4.7,0,8.9,1.8,12.5,5.5c3.6,3.6,5.4,7.8,5.4,12.6v111.8c0,4.8-1.8,9-5.4,12.6
			c-3.6,3.6-7.8,5.5-12.5,5.5H235.3c-4.7,0-8.9-1.8-12.5-5.5c-3.6-3.6-5.4-7.8-5.4-12.6V513.1c0-4.8,1.8-9,5.4-12.6
			c3.6-3.6,7.8-5.5,12.5-5.5H386.7z M384.6,533.3v-18.1L311,564.4l-73.6-49.2v18.1l73.6,49.2L384.6,533.3z"/>
	</g>
</g>
</svg>
