<?xml version="1.0" encoding="utf-8"?>
<!-- Generator: Adobe Illustrator 21.0.2, SVG Export Plug-In . SVG Version: 6.00 Build 0)  -->
<svg version="1.1" id="Layer_1" xmlns="http://www.w3.org/2000/svg" xmlns:xlink="http://www.w3.org/1999/xlink" x="0px" y="0px"
	 viewBox="0 0 200 200" enable-background="new 0 0 200 200" xml:space="preserve">
<g id="Landing-Page_7_">
	<g id="_x30_1---Landing-v4a---Vendor-Select_6_" transform="translate(-894.000000, -718.000000)">
		<g id="search-bar_6_" transform="translate(0.000000, 542.000000)">
			<path id="Video-Icon" d="M1055,225.6c0,1.7-1.4,3.1-3.1,3.1h-9.2c-1.7,0-3.1-1.4-3.1-3.1v-9.2c0-1.7,1.4-3.1,3.1-3.1h9.2
				c1.7,0,3.1,1.4,3.1,3.1V225.6z M1055,253.1c0,1.7-1.4,3.1-3.1,3.1h-9.2c-1.7,0-3.1-1.4-3.1-3.1v-9.2c0-1.7,1.4-3.1,3.1-3.1h9.2
				c1.7,0,3.1,1.4,3.1,3.1V253.1z M1055,280.6c0,1.7-1.4,3.1-3.1,3.1h-9.2c-1.7,0-3.1-1.4-3.1-3.1v-9.2c0-1.7,1.4-3.1,3.1-3.1h9.2
				c1.7,0,3.1,1.4,3.1,3.1V280.6z M1055,308.1c0,1.7-1.4,3.1-3.1,3.1h-9.2c-1.7,0-3.1-1.4-3.1-3.1v-9.2c0-1.7,1.4-3.1,3.1-3.1h9.2
				c1.7,0,3.1,1.4,3.1,3.1V308.1z M1055,335.6c0,1.7-1.4,3.1-3.1,3.1h-9.2c-1.7,0-3.1-1.4-3.1-3.1v-9.2c0-1.7,1.4-3.1,3.1-3.1h9.2
				c1.7,0,3.1,1.4,3.1,3.1V335.6z M1026.2,227.1c0,1.7-1.4,3.1-3.1,3.1h-58.4c-1.7,0-3.1-1.4-3.1-3.1v-18.3h64.5V227.1z
				 M1026.2,305.3c0,1.7-1.4,3.1-3.1,3.1h-58.4c-1.7,0-3.1-1.4-3.1-3.1v-58.6c0-1.7,1.4-3.1,3.1-3.1h58.4c1.7,0,3.1,1.4,3.1,3.1
				V305.3z M1026.2,343.2h-64.5v-18.5c0-1.7,1.4-3.1,3.1-3.1h58.4c1.7,0,3.1,1.4,3.1,3.1V343.2z M948.2,225.6c0,1.7-1.4,3.1-3.1,3.1
				h-9.2c-1.7,0-3.1-1.4-3.1-3.1v-9.2c0-1.7,1.4-3.1,3.1-3.1h9.2c1.7,0,3.1,1.4,3.1,3.1V225.6z M948.2,253.1c0,1.7-1.4,3.1-3.1,3.1
				h-9.2c-1.7,0-3.1-1.4-3.1-3.1v-9.2c0-1.7,1.4-3.1,3.1-3.1h9.2c1.7,0,3.1,1.4,3.1,3.1V253.1z M948.2,280.6c0,1.7-1.4,3.1-3.1,3.1
				h-9.2c-1.7,0-3.1-1.4-3.1-3.1v-9.2c0-1.7,1.4-3.1,3.1-3.1h9.2c1.7,0,3.1,1.4,3.1,3.1V280.6z M948.2,308.1c0,1.7-1.4,3.1-3.1,3.1
				h-9.2c-1.7,0-3.1-1.4-3.1-3.1v-9.2c0-1.7,1.4-3.1,3.1-3.1h9.2c1.7,0,3.1,1.4,3.1,3.1V308.1z M948.2,335.6c0,1.7-1.4,3.1-3.1,3.1
				h-9.2c-1.7,0-3.1-1.4-3.1-3.1v-9.2c0-1.7,1.4-3.1,3.1-3.1h9.2c1.7,0,3.1,1.4,3.1,3.1V335.6z M1064.3,199.6H923.7
				c-3.4,0-6.1,2.8-6.1,6.1v140.6c0,3.4,2.8,6.1,6.1,6.1h140.6c3.4,0,6.1-2.8,6.1-6.1V205.7C1070.4,202.4,1067.6,199.6,1064.3,199.6
				L1064.3,199.6z"/>
		</g>
	</g>
</g>
</svg>
