<?xml version="1.0" encoding="utf-8"?>
<!-- Generator: Adobe Illustrator 21.0.2, SVG Export Plug-In . SVG Version: 6.00 Build 0)  -->
<svg version="1.1" id="Layer_1" xmlns="http://www.w3.org/2000/svg" xmlns:xlink="http://www.w3.org/1999/xlink" x="0px" y="0px"
	 viewBox="0 0 200 200" enable-background="new 0 0 200 200" xml:space="preserve">
<g id="Landing-Page_2_">
	<g id="_x30_1---Landing-v4a---Vendor-Select_1_" transform="translate(-543.000000, -716.000000)">
		<g id="search-bar_1_" transform="translate(0.000000, 542.000000)">
			<path id="Flowers-Icon" d="M614.5,208.7c6.8-13.6,18-24,22.3-27.7c3.7,3.2,12.7,11.5,19.4,22.7c0.5,0.8,1,1.6,1.4,2.4
				c0.5,0.8,0.9,1.7,1.3,2.5c0,0,0,0,0,0.1c13.4-7.2,28.5-9.3,34-9.8c1.2,4.7,3.8,16.8,3,29.8c-0.1,0.9-0.1,1.9-0.2,2.8
				c-0.1,0.9-0.2,1.9-0.4,2.8c-1,7.3-3.3,14.7-7.7,21c-1,1.5-2.2,2.8-3.3,4.1c-0.9,1-1.8,1.9-2.8,2.8c-1.2,1.1-2.6,2.2-3.9,3.2
				c-10.5,7.7-23.5,11.3-32.5,12.9c0,0,0,0,0,0v80.2c0,4.6-3.8,8.4-8.3,8.4c-4.6,0-8.3-3.8-8.3-8.4v-80.2c0,0,0,0,0,0
				c-9-1.6-22-5.2-32.5-12.9c-1.3-1-2.7-2-3.9-3.2c-1-0.9-1.9-1.8-2.8-2.8c-1.2-1.3-2.3-2.6-3.3-4.1c-4.4-6.3-6.7-13.7-7.7-21
				c-0.1-0.9-0.3-1.9-0.4-2.8c-0.1-0.9-0.2-1.9-0.2-2.8c-0.8-13,1.8-25.1,3-29.8C586.1,199.4,601.2,201.5,614.5,208.7z M652.3,323.5
				c0,0-6.7-26.4,21.7-37.6c0,0,19-8.3,43.9-0.6c0,0-3.7,40.6-32.5,48.1c0,0-11.7,4.9-25.7-1.5c0,0,4-19,37.2-31.8
				C696.9,300.1,668.9,297.3,652.3,323.5z M620.7,319.8c-13.3-21-35.7-18.8-35.7-18.8c26.6,10.2,29.8,25.5,29.8,25.5
				c-11.2,5.1-20.6,1.2-20.6,1.2c-23.1-6-26-38.6-26-38.6c20-6.1,35.2,0.5,35.2,0.5C626,298.7,620.7,319.8,620.7,319.8z"/>
		</g>
	</g>
</g>
</svg>
