<?xml version="1.0" encoding="utf-8"?>
<!-- Generator: Adobe Illustrator 21.0.2, SVG Export Plug-In . SVG Version: 6.00 Build 0)  -->
<svg version="1.1" id="Layer_1" xmlns="http://www.w3.org/2000/svg" xmlns:xlink="http://www.w3.org/1999/xlink" x="0px" y="0px"
	 viewBox="0 0 200 200" enable-background="new 0 0 200 200" xml:space="preserve">
<g id="Landing-Page_1_">
	<g id="_x30_1---Landing-v4a---Vendor-Select" transform="translate(-368.000000, -717.000000)">
		<g id="search-bar" transform="translate(0.000000, 542.000000)">
			<path id="Catering-Icon" d="M548.2,245.9c2-2,2-5.3,0-7.3l-3.2-3.2c-2-2-5.3-2-7.3,0l-29.4,29.4c-2,2-5.3,2-7.3,0l-3.2-3.2
				c-2-2-2-5.3,0-7.3l29.4-29.4c2-2,2-5.3,0-7.3l-3.2-3.2c-2-2-5.3-2-7.3,0l-29.4,29.4c-2,2-5.3,2-7.3,0l-3.2-3.2c-2-2-2-5.3,0-7.3
				l29.4-29.4c2-2,2-5.3,0-7.3l-3.2-3.2c-2-2-5.3-2-7.3,0l-33,33c-9.4,9.4-12.6,22.7-9.8,34.8c0.7,2.8-0.1,6.6-2.1,8.6l-63.1,63.1
				c-2,2-2,5.3,0,7.3l13.7,13.7c2,2,5.3,2,7.3,0l63.1-63.1c2-2,5.8-2.8,8.6-2.1c12.1,2.9,25.4-0.4,34.8-9.8L548.2,245.9z
				 M483.7,300.3c-2.8-0.3-6.7,0.8-8.7,2.8l-0.2,0.2c-2,2-2,5.3,0,7.3l45.9,45.9c2,2,5.3,2,7.3,0l15.8-15.8c2-2,2-5.3,0-7.3
				L511,300.6c-2-2-5.8-2.7-8.5-1.9c-4.3,1.3-8.9,1.9-13.5,1.9C487.2,300.6,485.4,300.5,483.7,300.3L483.7,300.3z M426.8,278.5
				l11.8-11.8c2-2,3.1-5.9,2.8-8.7c-0.7-6.4-0.1-12.8,1.7-18.8c0.8-2.7,0.1-6.5-1.9-8.5l-34.6-34.6c-2-2-5.3-2-7.1,0.2
				c-15.6,19.2-14.4,47.7,3.5,65.6l16.7,16.7C421.5,280.5,424.8,280.5,426.8,278.5L426.8,278.5z"/>
		</g>
	</g>
</g>
</svg>
