<?xml version="1.0" encoding="utf-8"?>
<!-- Generator: Adobe Illustrator 21.0.2, SVG Export Plug-In . SVG Version: 6.00 Build 0)  -->
<svg version="1.1" id="Layer_1" xmlns="http://www.w3.org/2000/svg" xmlns:xlink="http://www.w3.org/1999/xlink" x="0px" y="0px"
	 viewBox="0 0 200 200" enable-background="new 0 0 200 200" xml:space="preserve">
<g id="Blog_3_">
	<g id="_x31_2---Blog-Detail_3_" transform="translate(-453.000000, -1064.000000)">
		<path id="google" d="M627.4,1153.1V1132h-15v21.2h-21.6v15.1h21.6v21.8h15v-21.8h21v-15.1H627.4z M518.2,1151.9v24.2
			c0,0,23.3,0,32.8,0c-5.1,15.7-13.1,24.2-32.8,24.2c-19.9,0-35.4-16.2-35.4-36.3s15.5-36.3,35.4-36.3c10.5,0,17.3,3.7,23.5,8.9
			c5-5,4.6-5.7,17.3-17.8c-10.8-9.9-25.1-15.9-40.8-15.9c-33.5,0-60.6,27.4-60.6,61.1c0,33.7,27.1,61.1,60.6,61.1
			c50.1,0,62.3-43.9,58.2-73.2H518.2z"/>
	</g>
</g>
</svg>
