<?xml version="1.0" encoding="utf-8"?>
<!-- Generator: Adobe Illustrator 21.0.2, SVG Export Plug-In . SVG Version: 6.00 Build 0)  -->
<svg version="1.1" id="Layer_1" xmlns="http://www.w3.org/2000/svg" xmlns:xlink="http://www.w3.org/1999/xlink" x="0px" y="0px"
	 viewBox="0 0 200 200" enable-background="new 0 0 200 200" xml:space="preserve">
<g id="PDP_4_">
	<g id="_x30_4---PDP_4_" transform="translate(-991.000000, -865.000000)">
		<path id="Favorites-Icon" d="M1173.7,932.7c0-5.8-0.8-10.9-2.3-15.4c-1.5-4.4-3.5-8-5.9-10.6c-2.4-2.6-5.3-4.8-8.8-6.4
			c-3.4-1.7-6.8-2.8-10.1-3.3c-3.3-0.6-6.8-0.9-10.5-0.9c-3.7,0-7.7,0.9-12.1,2.7c-4.3,1.8-8.3,4.1-11.9,6.9
			c-3.6,2.8-6.7,5.3-9.3,7.7c-2.6,2.4-4.7,4.6-6.5,6.6c-1.3,1.6-3,2.4-5.3,2.4c-2.2,0-4-0.8-5.3-2.4c-1.7-2-3.9-4.2-6.5-6.6
			c-2.6-2.4-5.7-5-9.3-7.7c-3.6-2.8-7.6-5.1-11.9-6.9c-4.3-1.8-8.3-2.7-12.1-2.7c-3.7,0-7.2,0.3-10.5,0.9c-3.3,0.6-6.7,1.7-10.1,3.3
			c-3.4,1.7-6.4,3.8-8.8,6.4c-2.4,2.6-4.4,6.2-5.9,10.6c-1.5,4.4-2.3,9.6-2.3,15.4c0,12.1,6.7,24.8,20.1,38.2l62.5,60.3l62.4-60.2
			C1166.9,957.5,1173.7,944.8,1173.7,932.7z M1187.4,932.7c0,15.9-8.2,32-24.6,48.4l-67,64.6c-1.3,1.3-2.9,1.9-4.7,1.9
			c-1.9,0-3.4-0.6-4.7-1.9l-67.2-64.8c-0.7-0.6-1.7-1.5-3-2.8c-1.3-1.3-3.2-3.6-6-7c-2.7-3.4-5.2-6.9-7.3-10.5
			c-2.2-3.6-4.1-7.9-5.8-13c-1.7-5.1-2.5-10-2.5-14.9c0-15.8,4.6-28.1,13.7-37c9.1-8.9,21.7-13.3,37.8-13.3c4.4,0,9,0.8,13.6,2.3
			s8.9,3.6,12.9,6.2c4,2.6,7.4,5.1,10.3,7.4c2.9,2.3,5.6,4.7,8.2,7.3c2.6-2.6,5.3-5,8.2-7.3c2.9-2.3,6.3-4.8,10.3-7.4
			c4-2.6,8.3-4.7,12.9-6.2c4.6-1.5,9.2-2.3,13.6-2.3c16.1,0,28.7,4.4,37.8,13.3C1182.9,904.6,1187.4,916.9,1187.4,932.7z"/>
	</g>
</g>
</svg>
