<?xml version="1.0" encoding="utf-8"?>
<!-- Generator: Adobe Illustrator 21.0.2, SVG Export Plug-In . SVG Version: 6.00 Build 0)  -->
<svg version="1.1" id="Layer_1" xmlns="http://www.w3.org/2000/svg" xmlns:xlink="http://www.w3.org/1999/xlink" x="0px" y="0px"
	 viewBox="0 0 200 200" enable-background="new 0 0 200 200" xml:space="preserve">
<g id="PDP_9_">
	<g id="_x30_4---PDP_9_" transform="translate(-991.000000, -865.000000)">
		<path id="Favorites-Icon_1_" d="M1187.4,932.7c0,15.9-8.2,32-24.6,48.4l-67,64.6c-1.3,1.3-2.9,1.9-4.7,1.9c-1.9,0-3.4-0.6-4.7-1.9
			l-67.2-64.8c-0.7-0.6-1.7-1.5-3-2.8c-1.3-1.3-3.2-3.6-6-7c-2.7-3.4-5.2-6.9-7.3-10.5c-2.2-3.6-4.1-7.9-5.8-13
			c-1.7-5.1-2.5-10-2.5-14.9c0-15.8,4.6-28.1,13.7-37c9.1-8.9,21.7-13.3,37.8-13.3c4.4,0,9,0.8,13.6,2.3s8.9,3.6,12.9,6.2
			c4,2.6,7.4,5.1,10.3,7.4c2.9,2.3,5.6,4.7,8.2,7.3c2.6-2.6,5.3-5,8.2-7.3c2.9-2.3,6.3-4.8,10.3-7.4c4-2.6,8.3-4.7,12.9-6.2
			c4.6-1.5,9.2-2.3,13.6-2.3c16.1,0,28.7,4.4,37.8,13.3C1182.9,904.6,1187.4,916.9,1187.4,932.7z"/>
	</g>
</g>
</svg>
