<?xml version="1.0" encoding="utf-8"?>
<!-- Generator: Adobe Illustrator 21.0.2, SVG Export Plug-In . SVG Version: 6.00 Build 0)  -->
<svg version="1.1" id="Layer_1" xmlns="http://www.w3.org/2000/svg" xmlns:xlink="http://www.w3.org/1999/xlink" x="0px" y="0px"
	 viewBox="0 0 200 200" enable-background="new 0 0 200 200" xml:space="preserve">
<g id="PDP_8_">
	<g id="_x30_4---PDP_8_" transform="translate(-385.000000, -737.000000)">
		<path id="About-Icon" d="M494.2,800.4c0,5.1-4.1,9.2-9.2,9.2s-9.2-4.1-9.2-9.2c0-5.1,4.1-9.2,9.2-9.2S494.2,795.3,494.2,800.4z
			 M572.9,837c0,48.5-39.3,87.9-87.9,87.9s-87.9-39.3-87.9-87.9s39.3-87.9,87.9-87.9S572.9,788.5,572.9,837z M558.2,837
			c0-40.4-32.8-73.2-73.2-73.2s-73.2,32.8-73.2,73.2s32.8,73.2,73.2,73.2S558.2,877.4,558.2,837z M463,822.4V837h14.6v43.9h14.6
			v-58.6H463z"/>
	</g>
</g>
</svg>
