<?xml version="1.0" encoding="utf-8"?>
<!-- Generator: Adobe Illustrator 21.0.2, SVG Export Plug-In . SVG Version: 6.00 Build 0)  -->
<svg version="1.1" id="Layer_1" xmlns="http://www.w3.org/2000/svg" xmlns:xlink="http://www.w3.org/1999/xlink" x="0px" y="0px"
	 viewBox="0 0 200 200" enable-background="new 0 0 200 200" xml:space="preserve">
<g id="About_1_">
	<g id="_x30_8---About_1_" transform="translate(-306.000000, -1384.000000)">
		<path id="Search-Icon" d="M335.5,1490.9h140.9v-77.4H335.5V1490.9z M489.6,1415.3v90.3H322.2v-90.3c0-8.4,6.9-15.3,15.3-15.3
			h136.8C482.7,1399.9,489.6,1406.8,489.6,1415.3L489.6,1415.3z M433.4,1550.9l-11-16.1h-33l-11,16.1H433.4z M493.3,1568.1H318.7
			c-7.8,0-11.1-9.8-7.4-21.7l10.9-35.5h167.5l10.9,35.5C504.4,1558.3,501,1568.1,493.3,1568.1z M429.2,1469.9c2.1,2.1,2.1,5.5,0,7.6
			c-1,1-2.4,1.6-3.8,1.6c-1.4,0-2.7-0.5-3.8-1.6l-11.4-11.4c-3.4,2.1-7.3,3.2-11.4,3.2c-5.9,0-11.5-2.3-15.7-6.5
			c-4.2-4.2-6.5-9.7-6.5-15.7c0-5.9,2.3-11.5,6.5-15.7c4.2-4.2,9.7-6.5,15.7-6.5c5.9,0,11.5,2.3,15.7,6.5v0
			c4.2,4.2,6.5,9.7,6.5,15.7c0,4.1-1.1,8-3.2,11.4L429.2,1469.9z M390.7,1455.2c2.2,2.2,5,3.3,8.1,3.3c3,0,5.9-1.2,8.1-3.3
			c2.2-2.2,3.3-5,3.3-8.1c0-3-1.2-5.9-3.3-8.1c-2.2-2.2-5-3.3-8.1-3.3c-3,0-5.9,1.2-8.1,3.3c-2.2,2.2-3.3,5-3.3,8.1
			C387.4,1450.2,388.6,1453.1,390.7,1455.2z"/>
	</g>
</g>
</svg>
