<?xml version="1.0" encoding="utf-8"?>
<!-- Generator: Adobe Illustrator 21.0.2, SVG Export Plug-In . SVG Version: 6.00 Build 0)  -->
<svg version="1.1" id="Layer_1" xmlns="http://www.w3.org/2000/svg" xmlns:xlink="http://www.w3.org/1999/xlink" x="0px" y="0px"
	 viewBox="0 0 200 200" enable-background="new 0 0 200 200" xml:space="preserve">
<g id="Blog_2_">
	<g id="_x31_2---Blog-Detail_2_" transform="translate(-386.000000, -1061.000000)">
		<path id="linkedin" d="M558.5,1229.7h-31.1v-49.6c0-12.5-4.5-21-15.8-21c-8.6,0-13.7,5.8-16,11.3c-0.8,2-1,4.7-1,7.5v51.8h-31.1
			c0,0,0.4-84,0-92.7h31.1v13.1c4.1-6.3,11.5-15.3,28-15.3c20.5,0,35.8,13.2,35.8,41.7V1229.7z M430.8,1124.3h-0.2
			c-10.4,0-17.2-7.1-17.2-16c0-9.1,7-16,17.6-16c10.6,0,17.2,6.9,17.4,16C448.4,1117.2,441.7,1124.3,430.8,1124.3L430.8,1124.3z
			 M415.3,1229.7h31.1V1137h-31.1V1229.7z"/>
	</g>
</g>
</svg>
