<?xml version="1.0" encoding="utf-8"?>
<!-- Generator: Adobe Illustrator 21.0.2, SVG Export Plug-In . SVG Version: 6.00 Build 0)  -->
<svg version="1.1" id="Layer_1" xmlns="http://www.w3.org/2000/svg" xmlns:xlink="http://www.w3.org/1999/xlink" x="0px" y="0px"
	 viewBox="0 0 200 200" enable-background="new 0 0 200 200" xml:space="preserve">
<g id="PDP_3_">
	<g id="_x30_4---PDP_3_" transform="translate(-525.000000, -740.000000)">
		<path id="Details-Icon" d="M683.8,826.8h-77.6c-3.7,0-5.9,1.3-6.7,3.9c-0.8,2.6-1.2,5.7-1.2,9.3s0.4,6.7,1.2,9.3
			c0.8,2.6,3,3.9,6.7,3.9h77.6c3.7,0,5.9-1.3,6.8-3.9c0.9-2.6,1.3-5.7,1.3-9.3s-0.4-6.7-1.3-9.3
			C689.7,828.1,687.4,826.8,683.8,826.8z M710.7,878.6H606.2c-3.7,0-5.9,1.3-6.7,3.9c-0.8,2.6-1.2,5.7-1.2,9.3
			c0,3.6,0.4,6.7,1.2,9.3c0.8,2.6,3,3.9,6.7,3.9h104.5c3.7,0,5.9-1.3,6.7-3.9c0.8-2.6,1.2-5.7,1.2-9.3c0-3.6-0.4-6.7-1.2-9.3
			C716.5,879.9,714.3,878.6,710.7,878.6z M606.2,801.4h104.5c3.7,0,5.9-1.3,6.7-3.9c0.8-2.6,1.2-5.7,1.2-9.3c0-3.6-0.4-6.7-1.2-9.3
			c-0.8-2.6-3-3.9-6.7-3.9H606.2c-3.7,0-5.9,1.3-6.7,3.9c-0.8,2.6-1.2,5.7-1.2,9.3c0,3.6,0.4,6.7,1.2,9.3
			C600.3,800.1,602.5,801.4,606.2,801.4z M563.4,826.8h-24c-3.7,0-5.9,1.3-6.7,3.9c-0.8,2.6-1.2,5.7-1.2,9.3s0.4,6.7,1.2,9.3
			c0.8,2.6,3,3.9,6.7,3.9h24c3.8,0,6.1-1.3,6.9-3.9c0.8-2.6,1.2-5.7,1.2-9.3s-0.4-6.7-1.2-9.3C569.5,828.1,567.2,826.8,563.4,826.8z
			 M563.4,878.6h-24c-3.7,0-5.9,1.3-6.7,3.9c-0.8,2.6-1.2,5.7-1.2,9.3c0,3.6,0.4,6.7,1.2,9.3c0.8,2.6,3,3.9,6.7,3.9h24
			c3.8,0,6.1-1.3,6.9-3.9c0.8-2.6,1.2-5.7,1.2-9.3c0-3.6-0.4-6.7-1.2-9.3C569.5,879.9,567.2,878.6,563.4,878.6z M563.4,775h-24
			c-3.7,0-5.9,1.3-6.7,3.9c-0.8,2.6-1.2,5.7-1.2,9.3c0,3.6,0.4,6.7,1.2,9.3c0.8,2.6,3,3.9,6.7,3.9h24c3.8,0,6.1-1.3,6.9-3.9
			c0.8-2.6,1.2-5.7,1.2-9.3c0-3.6-0.4-6.7-1.2-9.3C569.5,776.3,567.2,775,563.4,775z"/>
	</g>
</g>
</svg>
