<?xml version="1.0" encoding="utf-8"?>
<!-- Generator: Adobe Illustrator 21.0.2, SVG Export Plug-In . SVG Version: 6.00 Build 0)  -->
<svg version="1.1" id="Layer_1" xmlns="http://www.w3.org/2000/svg" xmlns:xlink="http://www.w3.org/1999/xlink" x="0px" y="0px"
	 viewBox="0 0 200 200" enable-background="new 0 0 200 200" xml:space="preserve">
<g id="Checkout_1_">
	<g id="_x30_7---Checkout-2_1_" transform="translate(-661.000000, -260.000000)">
		<path id="Page-1" d="M847.2,345c1.8,0,3.4,0.8,5,2.3c1.6,1.5,2.4,3.1,2.4,4.8v98.6c0,1.7-0.8,3.3-2.4,4.8c-1.6,1.5-3.2,2.3-5,2.3
			H674.3c-1.8,0-3.3-0.8-4.7-2.3c-1.4-1.5-2.1-3.1-2.1-4.8V352c0-1.7,0.7-3.3,2.1-4.8c1.4-1.5,3-2.3,4.7-2.3h10h11.6v-21.5
			c0-16.7,6.2-31,18.6-43c12.4-12,27.4-18,44.9-18c17.5,0,32.6,6,45.2,18c12.6,12,18.9,26.4,18.9,43V345h13.7H847.2z M733.7,323.5
			V345h52v-21.5V323c0-6.7-2.6-12.4-7.9-17.3c-5.3-4.8-11.4-7.3-18.4-7.3c-7.4,0-13.5,2.4-18.4,7.3
			C736.1,310.5,733.7,316.5,733.7,323.5L733.7,323.5z"/>
	</g>
</g>
</svg>
