<?xml version="1.0" encoding="utf-8"?>
<!-- Generator: Adobe Illustrator 21.0.2, SVG Export Plug-In . SVG Version: 6.00 Build 0)  -->
<svg version="1.1" id="Layer_1" xmlns="http://www.w3.org/2000/svg" xmlns:xlink="http://www.w3.org/1999/xlink" x="0px" y="0px"
	 viewBox="0 0 200 200" enable-background="new 0 0 200 200" xml:space="preserve">
<g id="OWNER---Portal_7_">
	<g id="_x31_5.8---Dashboard---Venue-Select_1_" transform="translate(-524.000000, -274.000000)">
		<g id="Venue-Icon---One-Color" transform="translate(524.000000, 274.000000)">
			<path id="Combined-Shape_2_" d="M157.3,63.7c0,30.1-57.3,127-57.3,127s-57.3-96.9-57.3-127c0-30,25.6-54.4,57.3-54.4
				S157.3,33.7,157.3,63.7z M100,95.9c19.1,0,34.7-14.8,34.7-33s-15.6-33-34.7-33s-34.7,14.8-34.7,33S80.9,95.9,100,95.9z M100,46.4
				c9.6,0,17.4,7.4,17.4,16.5s-7.8,16.5-17.4,16.5S82.6,72,82.6,62.9S90.4,46.4,100,46.4z"/>
		</g>
	</g>
</g>
</svg>
