<?xml version="1.0" encoding="utf-8"?>
<!-- Generator: Adobe Illustrator 21.0.2, SVG Export Plug-In . SVG Version: 6.00 Build 0)  -->
<svg version="1.1" id="Layer_1" xmlns="http://www.w3.org/2000/svg" xmlns:xlink="http://www.w3.org/1999/xlink" x="0px" y="0px"
	 viewBox="0 0 200 200" enable-background="new 0 0 200 200" xml:space="preserve">
<g id="OWNER---Portal_3_">
	<g id="_x31_6---Dashboard---Incomplete_3_" transform="translate(-510.000000, -603.000000)">
		<path id="Property-Description-Icon" d="M610,698c6.6,0,12.3-2.3,16.9-7c4.7-4.7,7-10.3,7-16.9s-2.3-12.3-7-16.9
			c-4.7-4.7-10.3-7-16.9-7s-12.3,2.3-16.9,7c-4.7,4.7-7,10.3-7,16.9s2.3,12.3,7,16.9C597.7,695.7,603.4,698,610,698z M610,606.7
			c18.7,0,34.6,6.6,47.7,19.7s19.7,29,19.7,47.7c0,9.3-2.3,20-7,32.1c-4.7,12.1-10.3,23.4-16.9,33.9c-6.6,10.5-13.2,20.4-19.7,29.6
			c-6.5,9.2-12,16.5-16.5,21.9l-7.2,7.7c-1.8-2.1-4.2-4.9-7.2-8.4c-3-3.5-8.4-10.4-16.3-20.8c-7.8-10.4-14.7-20.5-20.6-30.3
			c-5.9-9.8-11.2-20.9-16-33.2c-4.8-12.4-7.2-23.2-7.2-32.5c0-18.7,6.6-34.6,19.7-47.7C575.4,613.3,591.3,606.7,610,606.7z"/>
	</g>
</g>
</svg>
