<?xml version="1.0" encoding="utf-8"?>
<!-- Generator: Adobe Illustrator 21.0.2, SVG Export Plug-In . SVG Version: 6.00 Build 0)  -->
<svg version="1.1" id="Layer_1" xmlns="http://www.w3.org/2000/svg" xmlns:xlink="http://www.w3.org/1999/xlink" x="0px" y="0px"
	 viewBox="0 0 200 200" enable-background="new 0 0 200 200" xml:space="preserve">
<g id="Contact_2_">
	<g id="_x31_0---Contact_2_" transform="translate(-213.000000, -593.000000)">
		<path id="Map-Icon" d="M396.6,647.2c1.8,1.3,2.7,3.1,2.7,5.4v108.2c0,2.6-0.9,4.4-2.7,5.4c-1,0.5-1.9,0.8-2.7,0.8
			c-1.5,0-2.6-0.3-3.1-0.8l-37.4-25.4l-37.4,25.4c-2.1,1-4,1-5.8,0l-37.4-25.4l-37.4,25.4c-1.8,1-3.7,1-5.8,0
			c-2.1-1.3-3.1-3.1-3.1-5.4V652.6c0-2.3,0.9-4.1,2.7-5.4l40.4-27.3c2.1-1,4-1,5.8,0l37.4,25.4l37.7-25.4c2.1-1,4-1,5.8,0
			L396.6,647.2z M266.4,730.4v-93.2L239,656.4v93.2L266.4,730.4z M278.7,730.4l28.1,18.9v-49.7l-1.5,4.2c-1.3-0.3-3.9-1.5-7.7-3.9
			l3.1-5c2.1,1.3,4.1,2.3,6.2,3.1v-42l-28.1-18.9v38.9c2.8,1.5,4.5,2.4,5,2.7l-3.9,5l-0.4-0.4c-0.3-0.3-0.5-0.4-0.8-0.4V730.4z
			 M319.2,749.2l28.1-18.9v-42l-0.4,0.4v0.4l-2.3,2.3l-4.6-4.2l2.3-2.3c0.5-0.3,1-0.8,1.5-1.7c0.5-0.9,1-1.6,1.5-2.1l1.9,1.9v-45.8
			L319.2,656v43.1h2.7l1.2,5.8c-0.5,0-1.2,0.1-1.9,0.2s-1.3,0.2-1.5,0.2h-0.4V749.2z M387,749.2V656l-27.3-18.9V671
			c0.5-0.3,1.1-0.4,1.7-0.4c0.6,0,1.1-0.1,1.3-0.4l1.5,6.2l-1.9,0.4c-1.3,0.3-2.2,0.5-2.7,0.8v52.8L387,749.2z M264.1,679.5
			c-1.8,0.5-3.6,1.4-5.4,2.7l-4.2-4.6c2.1-1.5,3.6-2.6,4.6-3.1c0.8-0.5,1.9-1,3.5-1.5l1.9,5.8c-0.3,0.3-0.3,0.4-0.2,0.4
			C264.4,679.1,264.3,679.3,264.1,679.5L264.1,679.5z M328.8,696.9c3.3-2.1,5.3-3.3,5.8-3.9l4.2,4.6c-2.1,2.1-4.5,3.7-7.3,5
			L328.8,696.9z M252.5,693v0.4l-5.8-1.9v-0.4c1-3.1,2.2-5.6,3.5-7.7l5,3.5C254.5,687.9,253.6,689.9,252.5,693L252.5,693z
			 M290.7,686.1c1.3,1.5,2.7,3,4.2,4.2l-4.2,4.6c-0.5-0.5-1.3-1.3-2.3-2.5c-1-1.2-1.8-2-2.3-2.5l-1.2-1.2l4.6-4.2
			C289.8,684.8,290.1,685.3,290.7,686.1L290.7,686.1z M371.5,683l-4.2-4.6l3.9-3.9l-3.9-3.9l4.2-4.6l3.9,4.2l4.2-4.2l4.2,4.6
			l-3.9,3.9l3.9,3.9l-4.2,4.6l-4.2-4.2L371.5,683z"/>
	</g>
</g>
</svg>
