<?xml version="1.0" encoding="utf-8"?>
<!-- Generator: Adobe Illustrator 21.0.2, SVG Export Plug-In . SVG Version: 6.00 Build 0)  -->
<svg version="1.1" id="Layer_1" xmlns="http://www.w3.org/2000/svg" xmlns:xlink="http://www.w3.org/1999/xlink" x="0px" y="0px"
	 viewBox="0 0 200 200" enable-background="new 0 0 200 200" xml:space="preserve">
<g id="Symbols">
	<g id="Header" transform="translate(-1335.000000, -22.000000)">
		<g id="Menu-Icon" transform="translate(1330.000000, 23.000000)">
			<g enable-background="new    ">
				<path d="M15.4,142.4c0.1-0.5,0.6-0.9,1.1-0.9h1c0.4,0,0.9,0.3,1.1,0.7l13.1,32.1H32L45,142.2c0.1-0.4,0.6-0.7,1.1-0.7h1
					c0.5,0,1,0.4,1.1,0.9l7.7,42.2c0.2,0.9-0.3,1.4-1.1,1.4h-4.1c-0.6,0-1.1-0.4-1.2-0.9l-4.6-28c-0.1,0-0.2,0-0.2,0L33.4,186
					c-0.1,0.4-0.5,0.7-1.1,0.7h-1.1c-0.5,0-0.9-0.3-1.1-0.7l-11.4-28.9c-0.1,0-0.2,0-0.3,0l-4.5,28c-0.1,0.4-0.6,0.9-1.1,0.9H8.8
					c-0.9,0-1.3-0.6-1.2-1.4L15.4,142.4z"/>
				<path d="M69.6,143.3c0-0.6,0.5-1.2,1.2-1.2h25.1c0.7,0,1.2,0.6,1.2,1.2v3.5c0,0.6-0.5,1.2-1.2,1.2H76.1v12.8h16.8
					c0.6,0,1.2,0.6,1.2,1.2v3.5c0,0.7-0.6,1.2-1.2,1.2H76.1v13.5h19.8c0.7,0,1.2,0.6,1.2,1.2v3.4c0,0.6-0.5,1.2-1.2,1.2H70.8
					c-0.7,0-1.2-0.6-1.2-1.2V143.3z"/>
				<path d="M111,142.6c0-0.6,0.6-1.1,1.2-1.1h1.6L141,173h0.1v-29.7c0-0.6,0.5-1.2,1.2-1.2h4c0.6,0,1.2,0.6,1.2,1.2v42.2
					c0,0.6-0.6,1.1-1.2,1.1h-1.6l-27.2-32.4h-0.1v30.6c0,0.6-0.5,1.2-1.2,1.2h-4c-0.6,0-1.2-0.6-1.2-1.2V142.6z"/>
				<path d="M163.5,143.3c0-0.6,0.6-1.2,1.2-1.2h4.2c0.7,0,1.2,0.6,1.2,1.2v25.9c0,6.3,4,11.2,10.4,11.2c6.5,0,10.5-4.8,10.5-11v-26
					c0-0.6,0.5-1.2,1.2-1.2h4.2c0.6,0,1.2,0.6,1.2,1.2v26.4c0,9.5-7.2,17-17.1,17c-9.9,0-17-7.5-17-17V143.3z"/>
			</g>
			<rect x="7.6" y="83" width="194.9" height="9"/>
			<rect x="7.6" y="47.2" width="194.9" height="9"/>
			<rect x="7.6" y="11.3" width="194.9" height="9"/>
		</g>
	</g>
</g>
</svg>
