<?xml version="1.0" encoding="utf-8"?>
<!-- Generator: Adobe Illustrator 21.0.2, SVG Export Plug-In . SVG Version: 6.00 Build 0)  -->
<svg version="1.1" id="Layer_1" xmlns="http://www.w3.org/2000/svg" xmlns:xlink="http://www.w3.org/1999/xlink" x="0px" y="0px"
	 viewBox="0 0 200 200" enable-background="new 0 0 200 200" xml:space="preserve">
<g id="Contact">
	<g id="_x31_0---Contact" transform="translate(-212.000000, -333.000000)">
		<path id="Phone-Icon" d="M271.6,358c1,2.6,2.4,6.4,4.2,11.6c1.8,5.1,3.6,9.8,5.4,13.9c1.8,4.1,2.7,6.4,2.7,6.9c1,3.1,1,5.6,0,7.7
			c-1.5,3.1-3.1,5.4-4.6,6.9l-6.9,6.9c-3.1,3.1-3.9,6.2-2.3,9.2c5.1,10.3,12.8,20.3,23.1,30c9.2,8.7,20.5,16.4,33.9,23.1
			c4.1,2.1,7.2,1.8,9.2-0.8c1-1,3.5-3.7,7.3-8.1c3.9-4.4,6.3-7.1,7.3-8.1c2.6-3.1,5.9-3.9,10-2.3c1.5,0.5,6.4,3.1,14.6,7.7
			s12.8,7.2,13.9,7.7c5.1,2.6,8,4.4,8.5,5.4c1.5,3.1,0.3,9.8-3.9,20c-1.5,4.6-5.6,8.9-12.3,12.7c-6.7,3.9-12.3,6-16.9,6.5
			c-0.5,1.5-4.6,1.8-12.3,0.8c-7.7-1-20.8-5.4-39.3-13.1c-5.6-2.6-11.4-5.6-17.3-9.2c-5.9-3.6-11-7.4-15.4-11.6
			c-4.4-4.1-8.6-8.2-12.7-12.3s-7.7-8.2-10.8-12.3s-5.6-7.7-7.7-10.8s-3.9-5.9-5.4-8.5l-2.3-3.1c-11.3-14.9-16.7-29.8-16.2-44.7
			c0.5-12.8,6.2-24.7,16.9-35.4c3.6-3.6,7.4-5.4,11.6-5.4h7.7C266.3,349.5,269.6,352.3,271.6,358L271.6,358z"/>
	</g>
</g>
</svg>
