<?xml version="1.0" encoding="utf-8"?>
<!-- Generator: Adobe Illustrator 21.0.2, SVG Export Plug-In . SVG Version: 6.00 Build 0)  -->
<svg version="1.1" id="Layer_1" xmlns="http://www.w3.org/2000/svg" xmlns:xlink="http://www.w3.org/1999/xlink" x="0px" y="0px"
	 viewBox="0 0 200 200" enable-background="new 0 0 200 200" xml:space="preserve">
<g id="Landing-Page_5_">
	<g id="_x30_1---Landing-v4a---Vendor-Select_4_" transform="translate(-540.000000, -667.000000)">
		<g id="search-bar_4_" transform="translate(0.000000, 542.000000)">
			<path id="Photobooth-Icon" d="M680.7,164.4H579.4h-13.5c-3.2,0-5.8,3.2-5.8,7.1v14.8v84.6v3.2h-4.8c-6.4,0-11.6-5.2-11.6-11.6
				V160.2c0-6.4,5.2-11.6,11.6-11.6h113.9c6.4,0,11.6,5.2,11.6,11.6V164.4z M724.8,176c6.4,0,11.6,5.2,11.6,11.6v102.3
				c0,6.4-5.2,11.6-11.6,11.6H582.9c-6.4,0-11.6-5.2-11.6-11.6V187.6c0-6.4,5.2-11.6,11.6-11.6H724.8z M586.8,286h134.1v-94.5H586.8
				V286z M630.2,275.3c-1.3,0-2.4-1.1-2.4-2.4v-15.4c0-10.6,8.7-19.2,19.3-19.2h13.5c10.6,0,19.2,8.6,19.2,19.2v15.7
				c-0.2,1.2-1.2,2-2.4,2H630.2z M653.8,232.6c-8.6,0-15.6-7-15.6-15.6c0-8.6,7-15.6,15.6-15.6c8.6,0,15.6,7,15.6,15.6
				C669.4,225.7,662.4,232.6,653.8,232.6z"/>
		</g>
	</g>
</g>
</svg>
