<?xml version="1.0" encoding="utf-8"?>
<!-- Generator: Adobe Illustrator 21.0.2, SVG Export Plug-In . SVG Version: 6.00 Build 0)  -->
<svg version="1.1" id="Layer_1" xmlns="http://www.w3.org/2000/svg" xmlns:xlink="http://www.w3.org/1999/xlink" x="0px" y="0px"
	 viewBox="0 0 200 200" enable-background="new 0 0 200 200" xml:space="preserve">
<g id="PLP_1_">
	<g id="_x30_2---Categories_1_" transform="translate(-1177.000000, -463.000000)">
		<path id="Events-Icon" d="M1218.1,527.8c-9.4,0-17-7.6-17-17c0-9.4,7.6-17,17-17c9.4,0,17,7.6,17,17
			C1235.1,520.2,1227.5,527.8,1218.1,527.8z M1275.6,538.1c0,4.4-3.6,8-8,8h-33.5V587v1.1V627c0,4.4-3.6,8-8,8c-4.4,0-8-3.6-8-8
			c0,4.4-3.6,8-8,8c-4.4,0-8-3.6-8-8v-38.9V587v-0.9c-4.4,0-8-3.6-8-8v-40c0-4.4,3.6-8,8-8h11c-0.1,0.2-0.1,0.4,0.1,0.7l3.9,7
			c0.3,0.6,0.8,0.6,1.1,0l3.9-7c0.1-0.3,0.2-0.5,0.1-0.7h5.5h6.5h33.5C1272,530.1,1275.6,533.7,1275.6,538.1z M1355.3,496.9
			c2.5,0,4.6,2.1,4.6,4.6v87.8c0,2.5-2.1,4.6-4.6,4.6h-98.6c-2.5,0-4.6-2.1-4.6-4.6c0-2.5,2.1-4.6,4.6-4.6h94v-78.6h-94
			c-2.5,0-4.6-2.1-4.6-4.6c0-2.5,2.1-4.6,4.6-4.6h38c-0.1-0.4-0.2-0.9-0.2-1.3c0-2.5,2.1-4.6,4.6-4.6h13.9c2.5,0,4.6,2.1,4.6,4.6
			c0,0.5-0.1,0.9-0.2,1.3H1355.3z M1309,601.6l27.5,27.5c1.4,1.4,1.4,3.6,0,5c-1.4,1.4-3.6,1.4-5,0l-25.6-25.5l-25.5,25.5
			c-1.4,1.4-3.6,1.4-5,0c-1.4-1.4-1.4-3.6,0-5l27.5-27.5c0.1-0.2,0.3-0.4,0.5-0.6c0.7-0.7,1.6-1,2.5-1c0.9,0,1.8,0.3,2.5,1
			C1308.7,601.2,1308.9,601.3,1309,601.6z"/>
	</g>
</g>
</svg>
