<?xml version="1.0" encoding="utf-8"?>
<!-- Generator: Adobe Illustrator 21.0.2, SVG Export Plug-In . SVG Version: 6.00 Build 0)  -->
<svg version="1.1" id="Layer_1" xmlns="http://www.w3.org/2000/svg" xmlns:xlink="http://www.w3.org/1999/xlink" x="0px" y="0px"
	 viewBox="0 0 200 200" enable-background="new 0 0 200 200" xml:space="preserve">
<g id="OWNER---Portal_2_">
	<g id="_x31_6---Dashboard---Incomplete_2_" transform="translate(-496.000000, -962.000000)">
		<path id="Pricing-Icon" d="M675.2,1022.5c-6.5,2.1-15.4,3-24.5,2.4c-9.1-0.5-17.9-2.4-24.1-5.3c-5.6-2.5-7.3-5-7.2-5.7
			c0-0.7,1.8-2.8,7-4.6c2.3,2.5,3.5,5.7,3.7,8.9c0.2,0.1,0.5,0.2,0.7,0.3c4.4,1.6,9.9,2.8,15.6,3.4l-0.3-14.2c0-0.4,0-0.8-0.1-1.3
			c1.9,0,3.9,0,5.9,0.1c9.1,0.5,17.9,2.4,24.1,5.3c0.5,0.2,1,0.5,1.4,0.7c4.4,2.3,5.8,4.3,5.8,5.1
			C683,1018.4,681,1020.6,675.2,1022.5 M598.6,1059.8l-8.8,5.2c-0.2,0.1-0.4,0.1-0.5,0.1c-0.2-0.1-0.3-0.2-0.4-0.4
			c-0.1-0.2-0.2-0.4-0.3-0.7c-0.9-2.3-2.4-6.2-6.4-10.2c-3.1-3.1-6-3.8-7.9-1.9c-1.7,1.7-1.1,4.6,2.2,12c4.8,10.1,4.4,16.9-1.4,22.7
			c-5.9,5.9-14.8,6.2-22.9,0.8l-5.9,5.9c-0.1,0.1-0.3,0.2-0.5,0.2c-0.2,0-0.3-0.1-0.5-0.2l-6.1-6.1c-0.3-0.3-0.3-0.7,0-0.9l5.5-5.5
			c-3.6-4.1-6.6-9.1-7.6-13c-0.1-0.3,0-0.6,0.3-0.7l9.1-5.4c0.2-0.1,0.4-0.1,0.6,0c0.2,0.1,0.3,0.2,0.4,0.4
			c0.8,2.8,2.9,8.2,7.4,12.7c1.7,1.7,3.4,2.8,5,3.1c1.5,0.4,2.9,0,3.9-1c2-2,1.7-5.2-1.3-11.2c-3.5-7.1-6.7-16.2,0.3-23.2
			c5.7-5.7,14-6,21.9-0.9l5.5-5.5c0.3-0.3,0.7-0.3,0.9,0l6.1,6.1c0.3,0.3,0.3,0.7,0,0.9l-5,5c3.2,3.6,5.4,7.1,6.7,10.8
			C599,1059.3,598.9,1059.6,598.6,1059.8 M680.1,1002.5c-7.4-3.4-17.2-5.5-27.7-6.2c-3.6-0.2-7.1-0.2-10.5-0.1
			c-3.5-4.4-8.8-7.3-14.8-7.5l-40.3-1c-5.3-0.1-10.4,1.9-14.2,5.7l-68.2,68.2c-7.6,7.6-7.6,19.9,0,27.4l41.3,41.3
			c7.6,7.6,19.9,7.6,27.4,0l68.2-68.2c3.8-3.8,5.8-8.9,5.7-14.2l-0.2-10.5c-7.8-0.7-15.1-2.2-21.4-4.5c-1.3-0.5-2.4-0.9-3.5-1.4
			c-5.2,2.4-11.5,1.4-15.7-2.8c-5.5-5.5-5.5-14.4,0-19.9c2.1-2.1,4.6-3.4,7.3-3.9c-3.3,3.1-4.1,6.2-4.2,8.3
			c-0.2,3.3,1.1,9.5,11.4,14.8c0.6,0.3,1.2,0.6,1.9,0.9c7.4,3.4,17.2,5.5,27.7,6.2c20.9,1.2,42.5-4.2,43.3-17
			C693.6,1014.7,692.1,1008,680.1,1002.5"/>
	</g>
</g>
</svg>
