<?xml version="1.0" encoding="utf-8"?>
<!-- Generator: Adobe Illustrator 21.0.2, SVG Export Plug-In . SVG Version: 6.00 Build 0)  -->
<svg version="1.1" id="Layer_1" xmlns="http://www.w3.org/2000/svg" xmlns:xlink="http://www.w3.org/1999/xlink" x="0px" y="0px"
	 viewBox="0 0 200 200" enable-background="new 0 0 200 200" xml:space="preserve">
<g id="FAQ_1_">
	<g id="_x30_9---FAQ_1_" transform="translate(-221.000000, -355.000000)">
		<g id="question-icon" transform="translate(220.000000, 331.000000)">
			<g enable-background="new    ">
				<path d="M77,140v-11.4c0-22.7,37.4-32.8,37.4-50.1c0-8.4-8.7-16-20.3-16c-19,0-24.1,17.1-30.9,11.1L46.7,57.4
					c-2.2-1.9-1.9-5.1,0-7c0,0,20-23.8,55-23.8c28.7,0,55.2,20,55.2,47.4c0,35.7-40.6,36.8-40.6,66.1c0,3-2.4,5.1-5.1,5.1h-29
					C79.4,145.1,77,143,77,140z M96.5,170c14.1,0,26,11.9,26,26c0,13.8-11.9,25.5-26,25.5C82.7,221.5,71,209.8,71,196
					C71,181.9,82.7,170,96.5,170z"/>
			</g>
		</g>
	</g>
</g>
</svg>
