<?xml version="1.0" encoding="utf-8"?>
<!-- Generator: Adobe Illustrator 21.0.2, SVG Export Plug-In . SVG Version: 6.00 Build 0)  -->
<svg version="1.1" id="Layer_1" xmlns="http://www.w3.org/2000/svg" xmlns:xlink="http://www.w3.org/1999/xlink" x="0px" y="0px"
	 viewBox="0 0 200 200" enable-background="new 0 0 200 200" xml:space="preserve">
<g id="OWNER---Portal_5_">
	<g id="_x31_9---Reservations" transform="translate(-1187.000000, -189.000000)">
		<path id="Search-Icon_1_" d="M1324,274.2c0-14.2-5.1-26.4-15.2-36.5c-10.1-10.1-22.3-15.2-36.5-15.2s-26.4,5.1-36.5,15.2
			c-10.1,10.1-15.2,22.3-15.2,36.5c0,14.2,5.1,26.4,15.2,36.5c10.1,10.1,22.3,15.2,36.5,15.2s26.4-5.1,36.5-15.2
			C1318.9,300.6,1324,288.5,1324,274.2z M1383.1,370.3c0,4-1.5,7.5-4.4,10.4c-2.9,2.9-6.4,4.4-10.4,4.4c-4.2,0-7.6-1.5-10.4-4.4
			l-39.6-39.5c-13.8,9.5-29.1,14.3-46.1,14.3c-11,0-21.5-2.1-31.6-6.4c-10-4.3-18.7-10-26-17.3s-13-15.9-17.3-26
			c-4.3-10-6.4-20.6-6.4-31.6c0-11,2.1-21.5,6.4-31.6c4.3-10,10-18.7,17.3-26s15.9-13,26-17.3c10-4.3,20.6-6.4,31.6-6.4
			s21.5,2.1,31.6,6.4c10,4.3,18.7,10,26,17.3c7.3,7.3,13,15.9,17.3,26c4.3,10,6.4,20.6,6.4,31.6c0,16.9-4.8,32.3-14.3,46.1
			l39.6,39.6C1381.6,362.7,1383.1,366.2,1383.1,370.3z"/>
	</g>
</g>
</svg>
