<?xml version="1.0" encoding="utf-8"?>
<!-- Generator: Adobe Illustrator 21.0.2, SVG Export Plug-In . SVG Version: 6.00 Build 0)  -->
<svg version="1.1" id="Layer_1" xmlns="http://www.w3.org/2000/svg" xmlns:xlink="http://www.w3.org/1999/xlink" x="0px" y="0px"
	 viewBox="0 0 200 200" enable-background="new 0 0 200 200" xml:space="preserve">
<g id="Landing-Page_8_">
	<g id="_x30_1---Landing-v4a---Vendor-Select_7_" transform="translate(-371.000000, -666.000000)">
		<g id="search-bar_7_" transform="translate(0.000000, 542.000000)">
			<path id="Band-Icon" d="M518.4,135.1c5,0,9,4.1,9,9.2v153.1H414.6V144.3c0-5.1,4-9.2,9-9.2H518.4z M407.9,312.9v-11.3h126.2v11.3
				H407.9z M471,158.1c-9.6,0-17.4,7.9-17.4,17.7c0,9.8,7.8,17.7,17.4,17.7s17.4-7.9,17.4-17.7C488.4,166.1,480.6,158.1,471,158.1z
				 M471,278.5c19.5,0,35.3-16.1,35.3-36c0-19.8-15.8-36-35.3-36c-19.5,0-35.3,16.1-35.3,36C435.7,262.4,451.5,278.5,471,278.5z
				 M471,213.7c15.6,0,28.3,12.9,28.3,28.8c0,15.9-12.7,28.8-28.3,28.8c-15.6,0-28.3-12.9-28.3-28.8c0-5,1.3-9.7,3.5-13.8l12.7,7.1
				c-1.1,2-1.7,4.3-1.7,6.8c0,7.8,6.2,14.1,13.8,14.1s13.8-6.3,13.8-14.1c0-7.8-6.2-14.1-13.8-14.1c-3,0-5.8,1-8,2.6l-8.4-12
				C459.2,215.7,464.9,213.7,471,213.7z M471,186.4c-5.7,0-10.3-4.7-10.3-10.5c0-5.8,4.6-10.5,10.3-10.5c5.7,0,10.3,4.7,10.3,10.5
				C481.3,181.6,476.7,186.4,471,186.4z"/>
		</g>
	</g>
</g>
</svg>
