<?xml version="1.0" encoding="utf-8"?>
<!-- Generator: Adobe Illustrator 21.0.2, SVG Export Plug-In . SVG Version: 6.00 Build 0)  -->
<svg version="1.1" id="Layer_1" xmlns="http://www.w3.org/2000/svg" xmlns:xlink="http://www.w3.org/1999/xlink" x="0px" y="0px"
	 viewBox="0 0 200 200" enable-background="new 0 0 200 200" xml:space="preserve">
<g id="PDP_5_">
	<g id="_x30_4---PDP_5_" transform="translate(-803.000000, -738.000000)">
		<path id="Reviews-Icon" d="M975.1,812.1c1,5,1.5,9.9,1.5,14.7c0,19.4-7.3,36.4-21.9,51.1c-14.6,14.7-32.8,23.8-54.7,27.4
			c9.8,3.8,20,5.7,30.6,5.7c10.1,0,19.8-1.8,29.1-5.3c9.3,3.3,20.4,4.9,33.2,4.9c-4.5-5.5-8.3-11.4-11.3-17.7
			c12.1-10.8,18.1-23.5,18.1-38.1C999.6,837.4,991.4,823.2,975.1,812.1z M958.5,826.9c0-17.1-7.4-31.7-22.3-43.8
			C921.4,771,903.4,765,882.4,765c-21,0-38.9,6-53.8,18.1c-14.8,12.1-22.3,26.7-22.3,43.8c0,17.6,8.1,32.6,24.2,44.9
			c-3.8,9.6-8.9,18.4-15.5,26.4c20.9,0,37.5-3.8,49.8-11.3c6,1,12,1.5,17.7,1.5c20.9,0,38.7-6,53.6-17.9
			C951.1,858.5,958.5,844,958.5,826.9z"/>
	</g>
</g>
</svg>
