<?xml version="1.0" encoding="utf-8"?>
<!-- Generator: Adobe Illustrator 21.0.2, SVG Export Plug-In . SVG Version: 6.00 Build 0)  -->
<svg version="1.1" id="Layer_1" xmlns="http://www.w3.org/2000/svg" xmlns:xlink="http://www.w3.org/1999/xlink" x="0px" y="0px"
	 viewBox="0 0 200 200" enable-background="new 0 0 200 200" xml:space="preserve">
<g id="PLP_2_">
	<g id="_x30_2---Categories_2_" transform="translate(-692.000000, -464.000000)">
		<path id="Parties-Icon" d="M795.8,619.5c-30.6,0-55.5-24.9-55.5-55.5c0-30.6,24.9-55.5,55.5-55.5c30.6,0,55.5,24.9,55.5,55.5
			C851.3,594.6,826.4,619.5,795.8,619.5 M795.8,496.5c-37.2,0-67.5,30.3-67.5,67.5c0,37.2,30.3,67.5,67.5,67.5
			c37.2,0,67.5-30.3,67.5-67.5C863.3,526.8,833,496.5,795.8,496.5 M795.8,588.2c-13.3,0-24.2-10.8-24.2-24.2
			c0-13.3,10.8-24.2,24.2-24.2c13.3,0,24.2,10.8,24.2,24.2C819.9,577.3,809.1,588.2,795.8,588.2 M795.8,533.3
			c-16.9,0-30.7,13.8-30.7,30.7c0,16.9,13.8,30.7,30.7,30.7c16.9,0,30.7-13.8,30.7-30.7C826.4,547.1,812.7,533.3,795.8,533.3
			 M888,508.8c0,0,0.2-4.4-2.8-4.4c-4.1,0-10,11.2-10.1,22.3c-0.1,8.2,0.2,44.9,0.2,44.9s0.7,2.9,2.6,5c-1.1,1-1.8,2.4-1.8,4v41.9
			c0,3,2.4,5.5,5.5,5.5c3,0,5.5-2.5,5.5-5.5v-41.9c0-1.3-0.5-2.5-1.3-3.5c1.2-1.2,2.2-3.1,2.3-6.6C888.3,562.3,888,508.8,888,508.8
			 M719.8,504.5c-1.2,0-2.1,1-2.1,2.1v18.1h-6.6v-18.1c0-1.2-1-2.1-2.1-2.1c-1.2,0-2.1,1-2.1,2.1v18.1h-6.6v-18.1
			c0-1.2-1-2.1-2.1-2.1c-1.2,0-2.1,1-2.1,2.1v28.3c0,5.2,3.1,9.8,7.6,11.8v75.7c0,3,2.5,5.5,5.5,5.5c3,0,5.5-2.5,5.5-5.5v-75.7
			c4.5-2.1,7.6-6.6,7.6-11.8v-28.3C722,505.4,721,504.5,719.8,504.5"/>
	</g>
</g>
</svg>
