<?xml version="1.0" encoding="utf-8"?>
<!-- Generator: Adobe Illustrator 21.0.2, SVG Export Plug-In . SVG Version: 6.00 Build 0)  -->
<svg version="1.1" id="Layer_1" xmlns="http://www.w3.org/2000/svg" xmlns:xlink="http://www.w3.org/1999/xlink" x="0px" y="0px"
	 viewBox="0 0 200 200" enable-background="new 0 0 200 200" xml:space="preserve">
<g id="Blog_1_">
	<g id="_x31_2---Blog-Detail_1_" transform="translate(-455.000000, -996.000000)">
		<path id="twitter" d="M612.7,1065.3c0.1,1.3,0.1,2.6,0.1,4c0,40.8-29.9,87.7-84.7,87.7c-16.8,0-32.4-5.1-45.6-13.9
			c2.3,0.3,4.7,0.4,7.1,0.4c14,0,26.8-4.9,37-13.2c-13-0.3-24-9.2-27.8-21.4c1.8,0.4,3.7,0.6,5.6,0.6c2.7,0,5.3-0.4,7.8-1.1
			c-13.6-2.8-23.9-15.3-23.9-30.2v-0.4c4,2.3,8.6,3.7,13.5,3.9c-8-5.5-13.2-15-13.2-25.7c0-5.7,1.5-11,4-15.5
			c14.7,18.7,36.6,30.9,61.3,32.2c-0.5-2.3-0.8-4.6-0.8-7c0-17,13.3-30.8,29.8-30.8c8.5,0,16.3,3.7,21.7,9.7
			c6.8-1.4,13.1-3.9,18.9-7.5c-2.2,7.2-6.9,13.3-13.1,17.1c6-0.7,11.8-2.4,17.1-4.8C623.5,1055.6,618.5,1061,612.7,1065.3"/>
	</g>
</g>
</svg>
