<?xml version="1.0" encoding="utf-8"?>
<!-- Generator: Adobe Illustrator 21.0.2, SVG Export Plug-In . SVG Version: 6.00 Build 0)  -->
<svg version="1.1" id="Layer_1" xmlns="http://www.w3.org/2000/svg" xmlns:xlink="http://www.w3.org/1999/xlink" x="0px" y="0px"
	 viewBox="0 0 200 200" enable-background="new 0 0 200 200" xml:space="preserve">
<g id="Vendor-Icon---One-Color" transform="translate(525.000000, 391.000000)">
	<path id="Fill-1" d="M-416-370.8c0,10.2,8.2,18.5,18.2,18.5c10.1,0,18.2-8.3,18.2-18.5c0-10.2-8.2-18.5-18.2-18.5
		C-407.8-389.3-416-381-416-370.8"/>
	<path id="Fill-3" d="M-364.7-337.3l-17.5-9.7c-1.1-0.6-3.1-1.2-4.5-1.2h-19.9c-1.3,0-3.3,0.5-4.5,1.2l-14.1,7.8
		c-1.1,0.6-2.3,2.2-2.7,3.5l-1.7,4.7c-0.6,1.2-0.9,3.2-0.8,4.6l0.2,2.6c0.1,1.3,1.2,2.9,2.3,3.5l11.3,6.3c1.1,0.6,2.8,1.9,3.7,2.9
		l1.6,3.2c0.2,1.3,0.3,3.4,0.2,4.8l-2.8,28.5c-0.1,1.3-0.2,2.4-0.2,2.4c0,0,0.1,1.1,0.1,2.4v46.8c0,1.3,1.1,2.4,2.4,2.4h30
		c1.3,0,2.4-1.1,2.4-2.4v-52.5c0-1.3,1.1-2.4,2.4-2.4h5.8c1.3,0,2.6-0.1,2.8-0.2c0.2-0.1,0.6-1.7,0.8-3l5.1-51.5
		c0.1-1.3,0.2-3,0-3.1C-362.5-336-363.5-336.6-364.7-337.3"/>
	<path id="Fill-5" d="M-453-360.7c-10.1,0-18.2,8.3-18.2,18.5c0,10.2,8.2,18.5,18.2,18.5c10.1,0,18.2-8.3,18.2-18.5
		C-434.8-352.4-442.9-360.7-453-360.7"/>
	<path id="Fill-7" d="M-421.5-309.3L-439-319c-1.1-0.6-3.1-1.2-4.5-1.2h-19.9c-1.3,0-3.3,0.5-4.5,1.2l-17.5,9.7
		c-1.1,0.6-2.2,1.3-2.4,1.5c-0.2,0.2-0.1,1.8,0,3.1l5.1,51.5c0.1,1.3,0.3,2.6,0.5,2.8c0.1,0.2,1.8,0.4,3.1,0.4h5.8
		c1.3,0,2.4,1.1,2.4,2.4v52.5c0,1.3,1.1,2.4,2.4,2.4h30c1.3,0,2.4-1.1,2.4-2.4v-52.5c0-1.3,1.1-2.4,2.4-2.4h5.8
		c1.3,0,2.6-0.1,2.8-0.2c0.2-0.1,0.6-1.7,0.8-3l5.1-51.5c0.1-1.3,0.2-3,0-3.1C-419.3-308-420.4-308.7-421.5-309.3"/>
</g>
</svg>
