<?xml version="1.0" encoding="utf-8"?>
<!-- Generator: Adobe Illustrator 21.0.2, SVG Export Plug-In . SVG Version: 6.00 Build 0)  -->
<svg version="1.1" id="Layer_1" xmlns="http://www.w3.org/2000/svg" xmlns:xlink="http://www.w3.org/1999/xlink" x="0px" y="0px"
	 viewBox="0 0 200 200" enable-background="new 0 0 200 200" xml:space="preserve">
<g id="About">
	<g id="_x30_8---About" transform="translate(-685.000000, -390.000000)">
		<path id="Logo-Mark-Icon" d="M820,480.1l-35.1,60.5l-10.5-18.2l35-60.3l43.2,0l27.1-46.7c2.2-3.8-0.5-8.5-4.9-8.5l-97.8-0.1
			l-34.7,59.8L718.6,426l26.2,0l11.1-19.1l-60.7,0c-4.4,0-7.1,4.7-4.9,8.5l51.9,89.6L788,426l63.4,0l-9.8,17l-43.2,0l-46.1,79.4
			l27.7,47.9c2.2,3.8,7.6,3.8,9.8,0l52.4-90.2H820z"/>
	</g>
</g>
</svg>
