<?xml version="1.0" encoding="utf-8"?>
<!-- Generator: Adobe Illustrator 21.0.2, SVG Export Plug-In . SVG Version: 6.00 Build 0)  -->
<svg version="1.1" id="Layer_1" xmlns="http://www.w3.org/2000/svg" xmlns:xlink="http://www.w3.org/1999/xlink" x="0px" y="0px"
	 viewBox="0 0 200 200" enable-background="new 0 0 200 200" xml:space="preserve">
<g id="PLP">
	<g id="_x30_2---Categories" transform="translate(-217.000000, -463.000000)">
		<path id="Wedding-Icon" d="M300.7,515.4c-0.9,6.1-2.4,13.8-4.6,21.6l-43.9,0.2c1.7-12.7,5.5-25.2,7.8-31.9L300.7,515.4z
			 M250.2,495.5c-1.2,3-28,69.7,5,90l-4.7,18.8c-2.5,9.7-14.8,8.6-14.8,8.6l-1.5,6.1l36.6,9l1.4-6c-9.6-4.2-10.3-10.1-9.9-13
			l5.1-20.5c38.7-2.7,46.2-74.2,46.5-77.3l0.5-5.4l-62.2-15.4L250.2,495.5z M337.9,544.5c-2.2-7.9-3.7-15.5-4.6-21.6l40.7-10.1
			c2.3,6.7,6.2,19.2,7.9,31.9L337.9,544.5z M398.3,620.5c0,0-12.3,1-14.8-8.7l-4.7-18.8c33-20.4,6.2-87.1,5-90l-2.1-5l-62.2,15.4
			l0.5,5.4c0.3,3.1,7.7,74.6,46.5,77.3l5.1,20.5c0.3,2.9-0.4,8.8-9.9,13l1.4,6l36.6-9L398.3,620.5z"/>
	</g>
</g>
</svg>
